<svg width="64" height="64" viewBox="0 0 64 64" fill="none" xmlns="http://www.w3.org/2000/svg">
<path fill-rule="evenodd" clip-rule="evenodd" d="M8.45871 13.7923C5.33337 16.915 5.33337 21.9443 5.33337 32.0003C5.33337 42.0563 5.33337 47.0857 8.45871 50.2083C11.5814 53.3337 16.6107 53.3337 26.6667 53.3337H37.3334C47.3894 53.3337 52.4187 53.3337 55.5414 50.2083C58.6667 47.0857 58.6667 42.0563 58.6667 32.0003C58.6667 21.9443 58.6667 16.915 55.5414 13.7923C52.4187 10.667 47.3894 10.667 37.3334 10.667H26.6667C16.6107 10.667 11.5814 10.667 8.45871 13.7923ZM49.536 20.0537C49.8754 20.4611 50.039 20.9866 49.991 21.5147C49.943 22.0427 49.6873 22.5301 49.28 22.8697L43.424 27.7497C41.0587 29.723 39.144 31.3177 37.4507 32.4057C35.6907 33.539 33.976 34.2537 32 34.2537C30.024 34.2537 28.3094 33.5363 26.5467 32.4057C24.856 31.3177 22.9414 29.7203 20.576 27.7523L14.72 22.8723C14.3123 22.5328 14.0561 22.0453 14.0079 21.517C13.9596 20.9886 14.1232 20.4627 14.4627 20.055C14.8022 19.6473 15.2897 19.3911 15.8181 19.3428C16.3464 19.2946 16.8723 19.4582 17.28 19.7977L23.04 24.595C25.528 26.667 27.2534 28.1017 28.7147 29.0403C30.1254 29.947 31.0827 30.2537 32.0027 30.2537C32.9227 30.2537 33.88 29.9497 35.2907 29.0403C36.7494 28.1017 38.4774 26.667 40.9654 24.595L46.7227 19.795C47.1305 19.456 47.6562 19.2928 48.1843 19.3413C48.7123 19.3898 49.1969 19.646 49.536 20.0537Z" fill="#E6E6E6"/>
</svg>
