<svg width="30" height="30" viewBox="0 0 30 30" fill="none" xmlns="http://www.w3.org/2000/svg">
<path d="M15.0037 4C13.0953 3.99936 11.2195 4.49523 9.56077 5.43889C7.902 6.38255 6.51727 7.74153 5.54265 9.3823C4.56803 11.0231 4.03704 12.8892 4.00187 14.7973C3.9667 16.7053 4.42854 18.5898 5.34204 20.2653L4.04037 24.8303C3.99457 24.9906 3.99335 25.1604 4.03684 25.3213C4.08033 25.4823 4.16689 25.6283 4.2872 25.7437C4.40751 25.8591 4.55701 25.9395 4.71962 25.9763C4.88223 26.013 5.05178 26.0048 5.21004 25.9523L9.49636 24.5242C10.9573 25.3684 12.5928 25.8652 14.2764 25.9762C15.9601 26.0872 17.6467 25.8094 19.2058 25.1642C20.7648 24.5191 22.1546 23.524 23.2676 22.2558C24.3806 20.9877 25.1869 19.4805 25.6242 17.8508C26.0614 16.2212 26.118 14.5128 25.7894 12.8578C25.4608 11.2028 24.7559 9.64562 23.7292 8.30665C22.7025 6.96768 21.3816 5.88284 19.8685 5.13606C18.3555 4.38927 16.691 4.00056 15.0037 4ZM11.337 13.1667C11.337 12.9236 11.4336 12.6904 11.6055 12.5185C11.7774 12.3466 12.0106 12.25 12.2537 12.25H17.7537C17.9968 12.25 18.23 12.3466 18.4019 12.5185C18.5738 12.6904 18.6704 12.9236 18.6704 13.1667C18.6704 13.4098 18.5738 13.6429 18.4019 13.8148C18.23 13.9868 17.9968 14.0833 17.7537 14.0833H12.2537C12.0106 14.0833 11.7774 13.9868 11.6055 13.8148C11.4336 13.6429 11.337 13.4098 11.337 13.1667ZM12.2537 15.9167H15.9204C16.1635 15.9167 16.3966 16.0132 16.5685 16.1852C16.7404 16.3571 16.837 16.5902 16.837 16.8333C16.837 17.0764 16.7404 17.3096 16.5685 17.4815C16.3966 17.6534 16.1635 17.75 15.9204 17.75H12.2537C12.0106 17.75 11.7774 17.6534 11.6055 17.4815C11.4336 17.3096 11.337 17.0764 11.337 16.8333C11.337 16.5902 11.4336 16.3571 11.6055 16.1852C11.7774 16.0132 12.0106 15.9167 12.2537 15.9167Z" fill="#946233"/>
</svg>
