<svg width="30" height="30" viewBox="0 0 30 30" fill="none" xmlns="http://www.w3.org/2000/svg">
<path fill-rule="evenodd" clip-rule="evenodd" d="M15 6.99999C13.6008 6.99974 12.2259 7.36648 11.0127 8.06362C9.79952 8.76076 8.79038 9.76391 8.08603 10.9729C7.38168 12.182 7.00675 13.5546 6.99868 14.9538C6.9906 16.353 7.34966 17.7299 8.04001 18.947C8.50662 18.3406 9.10644 17.8496 9.7931 17.512C10.4798 17.1744 11.2348 16.9992 12 17H18C18.7652 16.9992 19.5203 17.1744 20.2069 17.512C20.8936 17.8496 21.4934 18.3406 21.96 18.947C22.6504 17.7299 23.0094 16.353 23.0013 14.9538C22.9933 13.5546 22.6183 12.182 21.914 10.9729C21.2096 9.76391 20.2005 8.76076 18.9873 8.06362C17.7741 7.36648 16.3993 6.99974 15 6.99999ZM22.943 21.076C24.28 19.333 25.0032 17.1968 25 15C25 9.47699 20.523 4.99999 15 4.99999C9.47701 4.99999 5.00001 9.47699 5.00001 15C4.99671 17.1968 5.71992 19.333 7.05701 21.076L7.05201 21.094L7.40701 21.507C8.3449 22.6035 9.5094 23.4836 10.8202 24.0866C12.1311 24.6897 13.5571 25.0013 15 25C17.0273 25.0037 19.0074 24.3879 20.675 23.235C21.3859 22.7438 22.0306 22.163 22.593 21.507L22.948 21.094L22.943 21.076ZM15 8.99999C14.2044 8.99999 13.4413 9.31606 12.8787 9.87867C12.3161 10.4413 12 11.2043 12 12C12 12.7956 12.3161 13.5587 12.8787 14.1213C13.4413 14.6839 14.2044 15 15 15C15.7957 15 16.5587 14.6839 17.1213 14.1213C17.6839 13.5587 18 12.7956 18 12C18 11.2043 17.6839 10.4413 17.1213 9.87867C16.5587 9.31606 15.7957 8.99999 15 8.99999Z" fill="#946233"/>
</svg>
