<svg width="24" height="24" viewBox="0 0 24 24" fill="none" xmlns="http://www.w3.org/2000/svg">
<path d="M13.0004 3C11.2655 2.99942 9.56029 3.45021 8.05232 4.30808C6.54434 5.16595 5.2855 6.40139 4.39948 7.893C3.51346 9.38461 3.03074 11.0811 2.99877 12.8157C2.96679 14.5503 3.38666 16.2634 4.2171 17.7867L3.03377 21.9367C2.99213 22.0824 2.99102 22.2367 3.03056 22.383C3.0701 22.5293 3.14879 22.6621 3.25816 22.767C3.36753 22.8719 3.50345 22.945 3.65127 22.9784C3.7991 23.0119 3.95324 23.0043 4.0971 22.9567L7.99376 21.6583C9.32186 22.4258 10.8087 22.8774 12.3393 22.9783C13.8699 23.0792 15.4031 22.8267 16.8205 22.2402C18.2378 21.6537 19.5013 20.7491 20.5131 19.5962C21.5249 18.4433 22.2579 17.0731 22.6554 15.5917C23.0529 14.1102 23.1043 12.5571 22.8056 11.0526C22.5069 9.54803 21.8661 8.13238 20.9327 6.91514C19.9994 5.69789 18.7985 4.71167 17.423 4.03278C16.0475 3.35389 14.5343 3.00051 13.0004 3ZM9.6671 11.3333C9.6671 11.1123 9.75489 10.9004 9.91117 10.7441C10.0675 10.5878 10.2794 10.5 10.5004 10.5H15.5004C15.7214 10.5 15.9334 10.5878 16.0897 10.7441C16.246 10.9004 16.3338 11.1123 16.3338 11.3333C16.3338 11.5543 16.246 11.7663 16.0897 11.9226C15.9334 12.0789 15.7214 12.1667 15.5004 12.1667H10.5004C10.2794 12.1667 10.0675 12.0789 9.91117 11.9226C9.75489 11.7663 9.6671 11.5543 9.6671 11.3333ZM10.5004 13.8333H13.8338C14.0548 13.8333 14.2667 13.9211 14.423 14.0774C14.5793 14.2337 14.6671 14.4457 14.6671 14.6667C14.6671 14.8877 14.5793 15.0996 14.423 15.2559C14.2667 15.4122 14.0548 15.5 13.8338 15.5H10.5004C10.2794 15.5 10.0675 15.4122 9.91117 15.2559C9.75489 15.0996 9.6671 14.8877 9.6671 14.6667C9.6671 14.4457 9.75489 14.2337 9.91117 14.0774C10.0675 13.9211 10.2794 13.8333 10.5004 13.8333Z" fill="#946233"/>
</svg>
