<svg width="24" height="24" viewBox="0 0 24 24" fill="none" xmlns="http://www.w3.org/2000/svg">
<path d="M19.6202 2.72518H4.39016C3.76331 2.71984 3.15987 2.96307 2.71194 3.40163C2.26401 3.84019 2.00808 4.43836 2.00016 5.06518V7.18518C1.99422 7.69174 2.15007 8.18698 2.44503 8.59884C2.73999 9.0107 3.15867 9.31771 3.64016 9.47518V17.3352C3.64082 17.8554 3.74556 18.3703 3.94821 18.8494C4.15086 19.3286 4.44733 19.7623 4.82016 20.1252C5.57421 20.8678 6.59184 21.2813 7.65016 21.2752H16.3602C17.1471 21.2794 17.9178 21.0513 18.5757 20.6196C19.2337 20.1879 19.7497 19.5717 20.0592 18.8482C20.2616 18.3693 20.3673 17.8551 20.3702 17.3352V9.47518C20.8417 9.31865 21.2523 9.01848 21.5447 8.61678C21.837 8.21508 21.9962 7.73197 22.0002 7.23518V5.11518C22.004 4.8011 21.9452 4.48939 21.8271 4.19833C21.709 3.90727 21.534 3.64271 21.3123 3.42013C21.0907 3.19755 20.8268 3.02144 20.5363 2.90211C20.2457 2.78278 19.9343 2.72263 19.6202 2.72518ZM20.5002 7.18518C20.4987 7.29894 20.4748 7.41129 20.4297 7.51573C20.3846 7.62017 20.3192 7.71464 20.2374 7.79368C20.1556 7.87272 20.0589 7.93475 19.953 7.97621C19.847 8.01766 19.7339 8.0377 19.6202 8.03518H4.39016C4.27591 8.03784 4.16224 8.01796 4.05567 7.97668C3.9491 7.93539 3.85171 7.87351 3.76906 7.79458C3.68641 7.71564 3.62012 7.6212 3.57398 7.51663C3.52784 7.41207 3.50276 7.29944 3.50016 7.18518V5.06518C3.50274 4.95137 3.52789 4.8392 3.57415 4.73518C3.62041 4.63116 3.68686 4.53737 3.76965 4.45923C3.85244 4.38109 3.94992 4.32016 4.05644 4.27999C4.16296 4.23981 4.27639 4.22118 4.39016 4.22518H19.6202C19.7334 4.22118 19.8464 4.23987 19.9523 4.28016C20.0583 4.32045 20.1551 4.38153 20.2371 4.4598C20.3191 4.53807 20.3846 4.63195 20.4298 4.73592C20.475 4.83988 20.4989 4.95183 20.5002 5.06518V7.18518Z" fill="#946233"/>
</svg>
