<svg width="30" height="30" viewBox="0 0 30 30" fill="none" xmlns="http://www.w3.org/2000/svg">
<path fill-rule="evenodd" clip-rule="evenodd" d="M4.4064 6.465C3 7.92875 3 10.2863 3 15C3 19.7137 3 22.0712 4.4064 23.535C5.8116 25 8.0748 25 12.6 25H17.4C21.9252 25 24.1884 25 25.5936 23.535C27 22.0712 27 19.7137 27 15C27 10.2863 27 7.92875 25.5936 6.465C24.1884 5 21.9252 5 17.4 5H12.6C8.0748 5 5.8116 5 4.4064 6.465ZM22.8912 9.4C23.0439 9.59098 23.1175 9.83732 23.0959 10.0848C23.0743 10.3324 22.9593 10.5608 22.776 10.72L20.1408 13.0075C19.0764 13.9325 18.2148 14.68 17.4528 15.19C16.6608 15.7213 15.8892 16.0563 15 16.0563C14.1108 16.0563 13.3392 15.72 12.546 15.19C11.7852 14.68 10.9236 13.9312 9.8592 13.0087L7.224 10.7212C7.04052 10.5621 6.92525 10.3336 6.90353 10.0859C6.88181 9.83825 6.95544 9.59175 7.1082 9.40063C7.26096 9.2095 7.48036 9.08942 7.71812 9.0668C7.95588 9.04418 8.19252 9.12087 8.376 9.28L10.968 11.5287C12.0876 12.5 12.864 13.1725 13.5216 13.6125C14.1564 14.0375 14.5872 14.1813 15.0012 14.1813C15.4152 14.1813 15.846 14.0388 16.4808 13.6125C17.1372 13.1725 17.9148 12.5 19.0344 11.5287L21.6252 9.27875C21.8087 9.11983 22.0453 9.04333 22.2829 9.06607C22.5205 9.08881 22.7386 9.20892 22.8912 9.4Z" fill="#946233"/>
</svg>
