<svg width="30" height="30" viewBox="0 0 30 30" fill="none" xmlns="http://www.w3.org/2000/svg">
<path fill-rule="evenodd" clip-rule="evenodd" d="M6.464 6.464C5 7.93 5 10.286 5 15C5 19.714 5 22.071 6.464 23.535C7.93 25 10.286 25 15 25C19.714 25 22.071 25 23.535 23.535C25 22.072 25 19.714 25 15C25 10.286 25 7.929 23.535 6.464C22.072 5 19.714 5 15 5C10.286 5 7.929 5 6.464 6.464ZM19 13C19.5304 13 20.0391 12.7893 20.4142 12.4142C20.7893 12.0391 21 11.5304 21 11C21 10.4696 20.7893 9.96086 20.4142 9.58579C20.0391 9.21071 19.5304 9 19 9C18.4696 9 17.9609 9.21071 17.5858 9.58579C17.2107 9.96086 17 10.4696 17 11C17 11.5304 17.2107 12.0391 17.5858 12.4142C17.9609 12.7893 18.4696 13 19 13ZM9.32 16.104C9.61988 15.8253 10.0179 15.6765 10.4271 15.6902C10.8362 15.7038 11.2234 15.8789 11.504 16.177L14.152 18.987C14.538 19.397 15.0613 19.6506 15.6223 19.6997C16.1833 19.7487 16.7427 19.5897 17.194 19.253C17.4909 19.0314 17.8567 18.9222 18.2265 18.9447C18.5963 18.9672 18.9462 19.12 19.214 19.376L21.482 21.542C21.6269 21.6731 21.8172 21.7426 22.0124 21.7355C22.2077 21.7284 22.3925 21.6454 22.5275 21.5042C22.6625 21.3629 22.7371 21.1745 22.7353 20.9791C22.7335 20.7838 22.6556 20.5968 22.518 20.458L20.25 18.29C19.7258 17.7892 19.0411 17.4904 18.3174 17.4465C17.5938 17.4025 16.878 17.6163 16.297 18.05C16.1405 18.1665 15.9466 18.2215 15.7523 18.2043C15.5579 18.1872 15.3767 18.0991 15.243 17.957L12.596 15.147C12.0438 14.5609 11.2823 14.2169 10.4775 14.1901C9.67267 14.1633 8.88993 14.4559 8.3 15.004L7.49 15.756C7.34413 15.8913 7.25797 16.0789 7.25047 16.2777C7.24297 16.4765 7.31474 16.6701 7.45 16.816C7.58526 16.9619 7.77293 17.048 7.97172 17.0555C8.1705 17.063 8.36413 16.9913 8.51 16.856L9.32 16.104Z" fill="#946233"/>
</svg>
