<svg width="30" height="30" viewBox="0 0 30 30" fill="none" xmlns="http://www.w3.org/2000/svg">
<g clip-path="url(#clip0_894_2171)">
<path d="M23.6474 10.06C23.3967 9.46843 23.0319 8.93162 22.5739 8.48C22.1175 8.01558 21.5715 7.64818 20.9687 7.4C20.6012 7.24936 20.2174 7.14196 19.825 7.08V5.75C19.825 5.55109 19.7457 5.36032 19.6046 5.21967C19.4635 5.07902 19.2721 5 19.0725 5C18.8729 5 18.6816 5.07902 18.5404 5.21967C18.3993 5.36032 18.3201 5.55109 18.3201 5.75V7.02H11.6885V5.75C11.6885 5.55109 11.6092 5.36032 11.4681 5.21967C11.327 5.07902 11.1356 5 10.9361 5C10.7365 5 10.5451 5.07902 10.404 5.21967C10.2629 5.36032 10.1836 5.55109 10.1836 5.75V7.08C9.14499 7.23277 8.184 7.71697 7.44472 8.46C6.98509 8.91608 6.62075 9.45848 6.37277 10.0558C6.12479 10.6531 5.9981 11.2936 6.00002 11.94V20.04C5.99841 20.6914 6.12451 21.3368 6.37123 21.94C6.61304 22.5398 6.97488 23.0842 7.43468 23.54C7.89016 24.004 8.43594 24.372 9.0399 24.62C9.63985 24.871 10.2839 25 10.9361 25H19.0725C20.3791 24.9947 21.6305 24.4744 22.5534 23.5525C23.4764 22.6307 23.9959 21.3823 23.9985 20.08V11.97C24.0149 11.316 23.8954 10.6657 23.6474 10.06ZM19.6343 19.65H10.4344C10.2349 19.65 10.0435 19.571 9.90237 19.4303C9.76126 19.2897 9.68199 19.0989 9.68199 18.9C9.68199 18.7011 9.76126 18.5103 9.90237 18.3697C10.0435 18.229 10.2349 18.15 10.4344 18.15H19.5641C19.7637 18.15 19.9551 18.229 20.0962 18.3697C20.2373 18.5103 20.3165 18.7011 20.3165 18.9C20.3165 19.0989 20.2373 19.2897 20.0962 19.4303C19.9551 19.571 19.7637 19.65 19.5641 19.65H19.6343ZM19.6343 14.58H10.4344C10.2349 14.58 10.0435 14.501 9.90237 14.3603C9.76126 14.2197 9.68199 14.0289 9.68199 13.83C9.68199 13.6311 9.76126 13.4403 9.90237 13.2997C10.0435 13.159 10.2349 13.08 10.4344 13.08H19.5641C19.7637 13.08 19.9551 13.159 20.0962 13.2997C20.2373 13.4403 20.3165 13.6311 20.3165 13.83C20.3165 14.0289 20.2373 14.2197 20.0962 14.3603C19.9551 14.501 19.7637 14.58 19.5641 14.58H19.6343Z" fill="#946233"/>
</g>
<defs>
<clipPath id="clip0_894_2171">
<rect width="30" height="30" fill="white"/>
</clipPath>
</defs>
</svg>
