<svg width="31" height="30" viewBox="0 0 31 30" fill="none" xmlns="http://www.w3.org/2000/svg">
<path d="M25.7 14.5822C25.7033 16.5675 25.1128 18.5085 24.0045 20.1556C23.0904 21.5189 21.8545 22.6359 20.4061 23.408C18.9577 24.1801 17.3413 24.5834 15.7 24.5823C14.0586 24.5834 12.4423 24.1801 10.9939 23.408C9.54544 22.6359 8.30957 21.5189 7.39551 20.1556C6.52521 18.8583 5.97095 17.3751 5.77718 15.8249C5.58341 14.2748 5.7555 12.7008 6.27967 11.2292C6.80384 9.75756 7.66551 8.4292 8.79559 7.3506C9.92568 6.272 11.2927 5.47316 12.7872 5.01813C14.2817 4.56309 15.862 4.46452 17.4014 4.73031C18.9408 4.9961 20.3965 5.61886 21.6519 6.54866C22.9073 7.47847 23.9273 8.68946 24.6303 10.0845C25.3333 11.4796 25.6997 13.02 25.7 14.5822Z" stroke="#B9BBC2" stroke-width="1.5"/>
<path d="M17.0889 11.2489C17.0889 12.0156 16.4667 12.6378 15.7 12.6378V14.3045C16.5104 14.3045 17.2876 13.9826 17.8606 13.4096C18.4336 12.8365 18.7556 12.0593 18.7556 11.2489H17.0889ZM15.7 12.6378C14.9333 12.6378 14.3111 12.0156 14.3111 11.2489H12.6444C12.6444 12.0593 12.9663 12.8365 13.5394 13.4096C14.1124 13.9826 14.8896 14.3045 15.7 14.3045V12.6378ZM14.3111 11.2489C14.3111 10.4823 14.9333 9.86005 15.7 9.86005V8.19338C14.8896 8.19338 14.1124 8.51531 13.5394 9.08834C12.9663 9.66137 12.6444 10.4386 12.6444 11.2489H14.3111ZM15.7 9.86005C16.4667 9.86005 17.0889 10.4823 17.0889 11.2489H18.7556C18.7556 10.4386 18.4336 9.66137 17.8606 9.08834C17.2876 8.51531 16.5104 8.19338 15.7 8.19338V9.86005ZM8.10663 21.089L7.30773 20.8512L7.17773 21.2868L7.4744 21.6312L8.10663 21.089ZM23.2933 21.089L23.9267 21.6323L24.2222 21.2879L24.0922 20.8512L23.2933 21.089ZM12.3666 18.749H19.0333V17.0823H12.3666V18.749ZM12.3666 17.0823C11.2301 17.0824 10.1239 17.4492 9.21244 18.1282C8.30101 18.8072 7.63301 19.7622 7.30773 20.8512L8.90552 21.3268C9.12833 20.5819 9.58545 19.9288 10.209 19.4644C10.8325 19 11.5892 18.7491 12.3666 18.749V17.0823ZM15.7 23.749C14.3771 23.7505 13.0697 23.465 11.8678 22.9121C10.666 22.3593 9.59848 21.5523 8.73885 20.5468L7.4744 21.6312C8.49047 22.819 9.75201 23.7734 11.1721 24.4265C12.5921 25.0797 14.1369 25.4172 15.7 25.4157V23.749ZM19.0333 18.749C20.6667 18.749 22.05 19.8356 22.4945 21.3268L24.0922 20.8512C23.767 19.7622 23.099 18.8072 22.1875 18.1282C21.2761 17.4492 20.1699 17.0824 19.0333 17.0823V18.749ZM22.6611 20.5468C21.8015 21.5523 20.7339 22.3593 19.5321 22.9121C18.3303 23.465 17.0229 23.7505 15.7 23.749V25.4157C17.263 25.4172 18.8078 25.0797 20.2279 24.4265C21.648 23.7734 22.9106 22.8201 23.9267 21.6323L22.6611 20.5468Z" fill="#B9BBC2"/>
</svg>
