<svg width="24" height="24" viewBox="0 0 24 24" fill="none" xmlns="http://www.w3.org/2000/svg">
<path d="M2 12C2 7.286 2 4.929 3.464 3.464C4.93 2 7.286 2 12 2C16.714 2 19.071 2 20.535 3.464C22 4.93 22 7.286 22 12C22 16.714 22 19.071 20.535 20.535C19.072 22 16.714 22 12 22C7.286 22 4.929 22 3.464 20.535C2 19.072 2 16.714 2 12Z" stroke="#C5C8D4" stroke-width="1.5"/>
<path d="M16 10C17.1046 10 18 9.10457 18 8C18 6.89543 17.1046 6 16 6C14.8954 6 14 6.89543 14 8C14 9.10457 14.8954 10 16 10Z" stroke="#C5C8D4" stroke-width="1.5"/>
<path d="M5 13.3071L5.81 12.5541C6.2549 12.1407 6.84527 11.92 7.45226 11.9402C8.05926 11.9605 8.63362 12.22 9.05 12.6621L11.697 15.4721C12.236 16.0441 13.117 16.1211 13.746 15.6521C14.1848 15.3245 14.7255 15.163 15.2721 15.1961C15.8187 15.2293 16.3359 15.4549 16.732 15.8331L19 18.0001" stroke="#C5C8D4" stroke-width="1.5" stroke-linecap="round"/>
</svg>
