<svg width="31" height="30" viewBox="0 0 31 30" fill="none" xmlns="http://www.w3.org/2000/svg">
<path d="M3.5 15C3.5 10.2863 3.5 7.92877 4.9064 6.46502C6.3116 5.00002 8.5748 5.00002 13.1 5.00002H17.9C22.4252 5.00002 24.6884 5.00002 26.0936 6.46502C27.5 7.92877 27.5 10.2863 27.5 15C27.5 19.7138 27.5 22.0713 26.0936 23.535C24.6884 25 22.4252 25 17.9 25H13.1C8.5748 25 6.3116 25 4.9064 23.535C3.5 22.0713 3.5 19.7138 3.5 15Z" stroke="#B9BBC2" stroke-width="1.5"/>
<path d="M7.69995 9.8L10.5067 12.14C12.8948 14.129 14.0882 15.1235 15.5 15.1235C16.9118 15.1235 18.1065 14.129 20.4933 12.1387L23.3 9.8" stroke="#B9BBC2" stroke-width="1.5" stroke-linecap="round"/>
</svg>
