<svg width="31" height="30" viewBox="0 0 31 30" fill="none" xmlns="http://www.w3.org/2000/svg">
<path d="M5.90015 15C5.90015 10.286 5.90015 7.929 7.36415 6.464C8.83015 5 11.1861 5 15.9001 5C20.6141 5 22.9711 5 24.4351 6.464C25.9001 7.93 25.9001 10.286 25.9001 15C25.9001 19.714 25.9001 22.071 24.4351 23.535C22.9721 25 20.6141 25 15.9001 25C11.1861 25 8.82915 25 7.36415 23.535C5.90015 22.072 5.90015 19.714 5.90015 15Z" stroke="#B9BBC2" stroke-width="1.5"/>
<path d="M19.9001 13C21.0047 13 21.9001 12.1046 21.9001 11C21.9001 9.89543 21.0047 9 19.9001 9C18.7956 9 17.9001 9.89543 17.9001 11C17.9001 12.1046 18.7956 13 19.9001 13Z" stroke="#B9BBC2" stroke-width="1.5"/>
<path d="M8.90015 16.307L9.71015 15.554C10.155 15.1406 10.7454 14.9199 11.3524 14.9401C11.9594 14.9604 12.5338 15.2198 12.9501 15.662L15.5971 18.472C16.1361 19.044 17.0171 19.121 17.6461 18.652C18.085 18.3244 18.6257 18.1629 19.1723 18.196C19.7189 18.2291 20.2361 18.4548 20.6321 18.833L22.9001 21" stroke="#B9BBC2" stroke-width="1.5" stroke-linecap="round"/>
</svg>
