<svg width="25" height="24" viewBox="0 0 25 24" fill="none" xmlns="http://www.w3.org/2000/svg">
<path d="M2.5 12C2.5 8.229 2.5 6.343 3.672 5.172C4.843 4 6.729 4 10.5 4H14.5C18.271 4 20.157 4 21.328 5.172C22.5 6.343 22.5 8.229 22.5 12C22.5 15.771 22.5 17.657 21.328 18.828C20.157 20 18.271 20 14.5 20H10.5C6.729 20 4.843 20 3.672 18.828C2.5 17.657 2.5 15.771 2.5 12Z" stroke="#B9BBC2" stroke-width="1.5"/>
<path d="M6.5 8L8.659 9.8C10.496 11.33 11.414 12.095 12.5 12.095C13.586 12.095 14.505 11.33 16.341 9.799L18.5 8" stroke="#B9BBC2" stroke-width="1.5" stroke-linecap="round"/>
</svg>
