<svg width="31" height="30" viewBox="0 0 31 30" fill="none" xmlns="http://www.w3.org/2000/svg">
<path d="M11.6338 13.1645C11.6338 12.9214 11.7304 12.6883 11.9023 12.5164C12.0742 12.3444 12.3073 12.2479 12.5504 12.2479H18.0503C18.2934 12.2479 18.5265 12.3444 18.6984 12.5164C18.8703 12.6883 18.9669 12.9214 18.9669 13.1645C18.9669 13.4077 18.8703 13.6408 18.6984 13.8127C18.5265 13.9846 18.2934 14.0812 18.0503 14.0812H12.5504C12.3073 14.0812 12.0742 13.9846 11.9023 13.8127C11.7304 13.6408 11.6338 13.4077 11.6338 13.1645ZM12.5504 15.9145C12.3073 15.9145 12.0742 16.0111 11.9023 16.183C11.7304 16.3549 11.6338 16.5881 11.6338 16.8312C11.6338 17.0743 11.7304 17.3075 11.9023 17.4794C12.0742 17.6513 12.3073 17.7479 12.5504 17.7479H16.217C16.4601 17.7479 16.6933 17.6513 16.8652 17.4794C17.0371 17.3075 17.1336 17.0743 17.1336 16.8312C17.1336 16.5881 17.0371 16.3549 16.8652 16.183C16.6933 16.0111 16.4601 15.9145 16.217 15.9145H12.5504ZM4.30068 14.9979C4.30115 12.5761 5.10077 10.2222 6.5755 8.30131C8.05024 6.3804 10.1176 4.99986 12.457 4.37386C14.7964 3.74785 17.277 3.91137 19.5139 4.83905C21.7509 5.76673 23.6192 7.40671 24.829 9.50459C26.0388 11.6025 26.5226 14.041 26.2051 16.4418C25.8877 18.8427 24.7869 21.0717 23.0734 22.783C21.36 24.4944 19.1297 25.5925 16.7285 25.9069C14.3273 26.2213 11.8895 25.7345 9.79319 24.522L5.50698 25.952C5.34863 26.0049 5.17884 26.0135 5.01594 25.977C4.85305 25.9404 4.70323 25.86 4.58266 25.7446C4.46209 25.6291 4.37535 25.4829 4.33179 25.3217C4.28824 25.1605 4.28953 24.9905 4.33551 24.83L5.64081 20.2632C4.76087 18.6478 4.30011 16.8374 4.30068 14.9979ZM15.3004 5.83121C13.6819 5.83111 12.0923 6.25953 10.6931 7.07294C9.29385 7.88634 8.13493 9.05572 7.33412 10.4622C6.53331 11.8687 6.11916 13.4621 6.13376 15.0806C6.14836 16.699 6.5912 18.2847 7.41726 19.6765C7.48081 19.784 7.52173 19.9034 7.53749 20.0273C7.55325 20.1512 7.54353 20.277 7.50892 20.397L6.57578 23.6604L9.61536 22.6484C9.74445 22.6053 9.88151 22.5915 10.0166 22.608C10.1517 22.6245 10.2814 22.6708 10.3963 22.7437C11.5976 23.504 12.9593 23.9744 14.3737 24.1178C15.7881 24.2612 17.2164 24.0736 18.5459 23.5699C19.8753 23.0662 21.0694 22.2602 22.0336 21.2155C22.9979 20.1709 23.706 18.9162 24.102 17.5508C24.4979 16.1853 24.5708 14.7465 24.3149 13.3481C24.0591 11.9496 23.4814 10.6298 22.6277 9.49301C21.7739 8.35622 20.6675 7.4336 19.3958 6.79808C18.1241 6.16255 16.722 5.83154 15.3004 5.83121Z" fill="#B9BBC2"/>
</svg>
