<svg width="25" height="24" viewBox="0 0 25 24" fill="none" xmlns="http://www.w3.org/2000/svg">
<path d="M2.5 12C2.5 7.286 2.5 4.929 3.964 3.464C5.43 2 7.786 2 12.5 2C17.214 2 19.571 2 21.035 3.464C22.5 4.93 22.5 7.286 22.5 12C22.5 16.714 22.5 19.071 21.035 20.535C19.572 22 17.214 22 12.5 22C7.786 22 5.429 22 3.964 20.535C2.5 19.072 2.5 16.714 2.5 12Z" stroke="#B9BBC2" stroke-width="1.5"/>
<path d="M16.5 10C17.6046 10 18.5 9.10457 18.5 8C18.5 6.89543 17.6046 6 16.5 6C15.3954 6 14.5 6.89543 14.5 8C14.5 9.10457 15.3954 10 16.5 10Z" stroke="#B9BBC2" stroke-width="1.5"/>
<path d="M5.5 13.307L6.31 12.554C6.7549 12.1406 7.34527 11.9199 7.95226 11.9401C8.55926 11.9604 9.13362 12.2198 9.55 12.662L12.197 15.472C12.736 16.044 13.617 16.121 14.246 15.652C14.6848 15.3244 15.2255 15.1629 15.7721 15.196C16.3187 15.2291 16.8359 15.4548 17.232 15.833L19.5 18" stroke="#B9BBC2" stroke-width="1.5" stroke-linecap="round"/>
</svg>
