<svg width="31" height="30" viewBox="0 0 31 30" fill="none" xmlns="http://www.w3.org/2000/svg">
<path d="M19.5388 9.38378V5M10.6603 9.38378V5M10.1053 13.7676H20.0938M10.1053 19.2465H20.0938M24.0995 20.4962V11.7286C24.104 11.1344 23.9893 10.5451 23.7621 9.99483C23.5349 9.44453 23.1997 8.94408 22.7757 8.52231C22.3518 8.10053 21.8475 7.76579 21.292 7.53736C20.7364 7.30893 20.1406 7.19133 19.5388 7.19135H10.6603C10.0614 7.19149 9.46838 7.30813 8.91511 7.5346C8.36183 7.76106 7.85914 8.09293 7.43574 8.51124C7.01234 8.92956 6.67652 9.42613 6.44745 9.97261C6.21838 10.5191 6.10056 11.1048 6.1007 11.6962V20.4638C6.09637 21.058 6.21114 21.6471 6.4384 22.1973C6.66565 22.7474 7.00091 23.2478 7.42484 23.6694C7.84878 24.0911 8.35301 24.4257 8.9085 24.6541C9.46398 24.8825 10.0597 25 10.6614 25H19.5399C20.7494 25 21.9095 24.5255 22.7648 23.6809C23.6201 22.8362 24.0995 21.6907 24.0995 20.4962Z" stroke="#B9BBC2" stroke-width="1.5" stroke-linecap="round" stroke-linejoin="round"/>
</svg>
