<svg width="25" height="24" viewBox="0 0 25 24" fill="none" xmlns="http://www.w3.org/2000/svg">
<path d="M9.16705 10.3314C9.16705 10.1104 9.25484 9.89842 9.41112 9.74214C9.56739 9.58586 9.77935 9.49807 10.0004 9.49807H15.0002C15.2212 9.49807 15.4332 9.58586 15.5894 9.74214C15.7457 9.89842 15.8335 10.1104 15.8335 10.3314C15.8335 10.5524 15.7457 10.7644 15.5894 10.9207C15.4332 11.0769 15.2212 11.1647 15.0002 11.1647H10.0004C9.77935 11.1647 9.56739 11.0769 9.41112 10.9207C9.25484 10.7644 9.16705 10.5524 9.16705 10.3314ZM10.0004 12.8314C9.77935 12.8314 9.56739 12.9192 9.41112 13.0755C9.25484 13.2318 9.16705 13.4437 9.16705 13.6647C9.16705 13.8857 9.25484 14.0977 9.41112 14.254C9.56739 14.4103 9.77935 14.4981 10.0004 14.4981H13.3336C13.5546 14.4981 13.7666 14.4103 13.9228 14.254C14.0791 14.0977 14.1669 13.8857 14.1669 13.6647C14.1669 13.4437 14.0791 13.2318 13.9228 13.0755C13.7666 12.9192 13.5546 12.8314 13.3336 12.8314H10.0004ZM2.50058 11.9981C2.501 9.79648 3.22793 7.65656 4.5686 5.91028C5.90926 4.164 7.78872 2.90897 9.91542 2.33987C12.0421 1.77078 14.2972 1.91943 16.3308 2.76278C18.3644 3.60612 20.0628 5.09701 21.1627 7.00417C22.2625 8.91133 22.7023 11.1282 22.4137 13.3107C22.1251 15.4933 21.1244 17.5197 19.5667 19.0755C18.009 20.6313 15.9815 21.6295 13.7986 21.9153C11.6157 22.2012 9.39949 21.7586 7.49376 20.6564L3.59721 21.9564C3.45325 22.0045 3.2989 22.0123 3.15081 21.9791C3.00273 21.9458 2.86653 21.8728 2.75692 21.7678C2.64731 21.6628 2.56846 21.5299 2.52886 21.3834C2.48926 21.2368 2.49043 21.0823 2.53224 20.9364L3.71887 16.7847C2.91893 15.3161 2.50005 13.6704 2.50058 11.9981ZM12.5003 3.66474C11.029 3.66464 9.58384 4.05412 8.31183 4.79358C7.03981 5.53304 5.98626 6.59611 5.25825 7.87473C4.53024 9.15336 4.15373 10.6019 4.16701 12.0733C4.18028 13.5446 4.58286 14.9861 5.33383 16.2514C5.3916 16.3491 5.4288 16.4577 5.44313 16.5703C5.45746 16.6829 5.44862 16.7973 5.41716 16.9064L4.56885 19.8731L7.3321 18.9531C7.44945 18.9139 7.57406 18.9014 7.69686 18.9163C7.81966 18.9313 7.93759 18.9735 8.04208 19.0397C9.13416 19.7309 10.372 20.1585 11.6579 20.2889C12.9437 20.4193 14.2422 20.2487 15.4508 19.7908C16.6593 19.3329 17.7448 18.6001 18.6214 17.6505C19.4981 16.7008 20.1418 15.5602 20.5017 14.3189C20.8617 13.0776 20.928 11.7696 20.6953 10.4982C20.4627 9.22689 19.9376 8.02708 19.1615 6.99364C18.3854 5.9602 17.3795 5.12146 16.2234 4.54371C15.0673 3.96596 13.7927 3.66504 12.5003 3.66474Z" fill="#B9BBC2"/>
</svg>
