<svg width="24" height="24" viewBox="0 0 24 24" fill="none" xmlns="http://www.w3.org/2000/svg">
<path d="M8.66705 10.3314C8.66705 10.1104 8.75484 9.89842 8.91112 9.74214C9.06739 9.58586 9.27935 9.49807 9.50035 9.49807H14.5002C14.7212 9.49807 14.9332 9.58586 15.0894 9.74214C15.2457 9.89842 15.3335 10.1104 15.3335 10.3314C15.3335 10.5524 15.2457 10.7644 15.0894 10.9207C14.9332 11.0769 14.7212 11.1647 14.5002 11.1647H9.50035C9.27935 11.1647 9.06739 11.0769 8.91112 10.9207C8.75484 10.7644 8.66705 10.5524 8.66705 10.3314ZM9.50035 12.8314C9.27935 12.8314 9.06739 12.9192 8.91112 13.0755C8.75484 13.2318 8.66705 13.4437 8.66705 13.6647C8.66705 13.8857 8.75484 14.0977 8.91112 14.254C9.06739 14.4103 9.27935 14.4981 9.50035 14.4981H12.8336C13.0546 14.4981 13.2666 14.4103 13.4228 14.254C13.5791 14.0977 13.6669 13.8857 13.6669 13.6647C13.6669 13.4437 13.5791 13.2318 13.4228 13.0755C13.2666 12.9192 13.0546 12.8314 12.8336 12.8314H9.50035ZM2.00058 11.9981C2.001 9.79648 2.72793 7.65656 4.0686 5.91028C5.40926 4.164 7.28872 2.90897 9.41542 2.33987C11.5421 1.77078 13.7972 1.91943 15.8308 2.76278C17.8644 3.60612 19.5628 5.09701 20.6627 7.00417C21.7625 8.91133 22.2023 11.1282 21.9137 13.3107C21.6251 15.4933 20.6244 17.5197 19.0667 19.0755C17.509 20.6313 15.4815 21.6295 13.2986 21.9153C11.1157 22.2012 8.89949 21.7586 6.99376 20.6564L3.09721 21.9564C2.95325 22.0045 2.7989 22.0123 2.65081 21.9791C2.50273 21.9458 2.36653 21.8728 2.25692 21.7678C2.14731 21.6628 2.06846 21.5299 2.02886 21.3834C1.98926 21.2368 1.99043 21.0823 2.03224 20.9364L3.21887 16.7847C2.41893 15.3161 2.00005 13.6704 2.00058 11.9981ZM12.0003 3.66474C10.529 3.66464 9.08384 4.05412 7.81183 4.79358C6.53981 5.53304 5.48626 6.59611 4.75825 7.87473C4.03024 9.15336 3.65373 10.6019 3.66701 12.0733C3.68028 13.5446 4.08286 14.9861 4.83383 16.2514C4.8916 16.3491 4.9288 16.4577 4.94313 16.5703C4.95746 16.6829 4.94862 16.7973 4.91716 16.9064L4.06885 19.8731L6.8321 18.9531C6.94945 18.9139 7.07406 18.9014 7.19686 18.9163C7.31966 18.9313 7.43759 18.9735 7.54208 19.0397C8.63416 19.7309 9.87204 20.1585 11.1579 20.2889C12.4437 20.4193 13.7422 20.2487 14.9508 19.7908C16.1593 19.3329 17.2448 18.6001 18.1214 17.6505C18.9981 16.7008 19.6418 15.5602 20.0017 14.3189C20.3617 13.0776 20.428 11.7696 20.1953 10.4982C19.9627 9.22689 19.4376 8.02708 18.6615 6.99364C17.8854 5.9602 16.8795 5.12146 15.7234 4.54371C14.5673 3.96596 13.2927 3.66504 12.0003 3.66474Z" fill="white"/>
</svg>
