<svg width="24" height="24" viewBox="0 0 24 24" fill="none" xmlns="http://www.w3.org/2000/svg">
<path d="M4.382 8.813V17.313C4.382 18.158 4.726 18.969 5.339 19.566C5.95716 20.1663 6.78533 20.5014 7.647 20.5H16.353C17.219 20.5 18.049 20.164 18.661 19.566C18.9628 19.2733 19.2029 18.9232 19.3673 18.5363C19.5317 18.1493 19.6169 17.7334 19.618 17.313V8.813M4.382 8.813C3.48 8.813 2.75 8.099 2.75 7.219V5.094C2.75 4.214 3.481 3.5 4.382 3.5H19.618C20.52 3.5 21.25 4.214 21.25 5.094V7.219C21.25 8.099 20.519 8.813 19.618 8.813M4.382 8.813H19.618" stroke="white" stroke-width="1.5" stroke-linecap="round" stroke-linejoin="round"/>
</svg>
