<svg width="48" height="48" viewBox="0 0 48 48" fill="none" xmlns="http://www.w3.org/2000/svg">
<circle cx="24" cy="24" r="24" fill="#D4C0AD"/>
<g clip-path="url(#clip0_152_1554)">
<path fill-rule="evenodd" clip-rule="evenodd" d="M28.8719 22.7273C29.209 23.0648 29.3983 23.5223 29.3983 23.9993C29.3983 24.4763 29.209 24.9338 28.8719 25.2713L22.0847 32.0609C21.747 32.3985 21.2891 32.588 20.8117 32.5879C20.3343 32.5878 19.8764 32.398 19.5389 32.0603C19.2014 31.7227 19.0119 31.2647 19.012 30.7873C19.0121 30.3099 19.2018 29.8521 19.5395 29.5145L25.0547 23.9993L19.5395 18.4841C19.2115 18.1448 19.0298 17.6902 19.0337 17.2183C19.0376 16.7463 19.2267 16.2947 19.5602 15.9608C19.8938 15.627 20.3452 15.4374 20.8172 15.4331C21.2891 15.4288 21.7439 15.61 22.0835 15.9377L28.8731 22.7261L28.8719 22.7273Z" fill="#946233"/>
</g>
<defs>
<clipPath id="clip0_152_1554">
<rect width="28.8" height="28.8" fill="white" transform="translate(9.59998 38.3994) rotate(-90)"/>
</clipPath>
</defs>
</svg>
