<svg width="48" height="48" viewBox="0 0 48 48" fill="none" xmlns="http://www.w3.org/2000/svg">
<circle cx="24" cy="24" r="24" fill="#E8E8EB"/>
<g clip-path="url(#clip0_221_316)">
<path fill-rule="evenodd" clip-rule="evenodd" d="M28.8722 22.7275C29.2092 23.065 29.3986 23.5225 29.3986 23.9995C29.3986 24.4765 29.2092 24.934 28.8722 25.2715L22.085 32.0611C21.7473 32.3986 21.2894 32.5881 20.8119 32.588C20.3345 32.5879 19.8767 32.3981 19.5392 32.0605C19.2016 31.7228 19.0121 31.2649 19.0122 30.7874C19.0123 30.31 19.2021 29.8522 19.5398 29.5147L25.055 23.9995L19.5398 18.4843C19.2117 18.1449 19.0301 17.6903 19.0339 17.2184C19.0378 16.7464 19.2269 16.2949 19.5605 15.961C19.8941 15.6271 20.3454 15.4376 20.8174 15.4332C21.2893 15.4289 21.7441 15.6101 22.0838 15.9379L28.8734 22.7263L28.8722 22.7275Z" fill="#8A8E99"/>
</g>
<defs>
<clipPath id="clip0_221_316">
<rect width="28.8" height="28.8" fill="white" transform="translate(9.6001 38.3994) rotate(-90)"/>
</clipPath>
</defs>
</svg>
