<svg width="350" height="451" viewBox="0 0 350 451" fill="none" xmlns="http://www.w3.org/2000/svg">
<path d="M198.343 232.335C196.75 219.595 200.254 194.113 219.365 194.113C231.787 193.158 246.885 197.936 249.943 205.58" stroke="#454545" stroke-width="4" stroke-linecap="round"/>
<path d="M248.987 226.602C251.911 227.187 258.327 229.114 259.357 229.426C259.453 229.455 259.54 229.496 259.622 229.553C260.665 230.273 263.098 232.268 262.364 235.202C261.6 238.259 259.498 239.979 257.587 240.935C255.676 241.891 225.098 244.757 225.098 244.757" stroke="#454545" stroke-width="4" stroke-linecap="round"/>
<path d="M85.5886 285.846C82.722 282.023 76.9887 275.335 75.0776 270.557" stroke="#454545" stroke-width="4" stroke-linecap="round"/>
<path d="M226.054 230.424C226.691 235.839 226.627 247.624 221.276 251.446C215.925 255.268 239.431 253.039 251.853 251.446C254.402 251.446 259.88 252.211 261.409 255.268C262.901 258.252 260.268 261.479 258.66 262.817C258.582 262.882 258.495 262.932 258.401 262.969L249.086 266.695C249.02 266.722 248.954 266.741 248.885 266.753C243.43 267.714 232.155 269.601 229.876 269.601C227.599 269.601 208.799 269.601 199.492 269.601C199.361 269.601 199.236 269.626 199.114 269.675L194.521 271.513L122.041 291.54C121.947 291.566 121.857 291.605 121.774 291.656L89.4758 311.605C89.4325 311.632 89.3892 311.655 89.3424 311.675C82.6261 314.551 68.5695 320.245 65.5221 320.245C61.6999 320.245 60.7444 320.245 58.8333 316.423C57.3044 313.365 60.1073 310.053 61.6999 308.779L81.7663 296.357C84.3144 294.446 89.4107 290.432 89.4107 289.668C89.4107 289.002 87.4775 287.321 86.1369 286.267C85.8079 286.009 85.3558 285.986 84.9951 286.198C81.503 288.254 74.1534 292.284 68.3886 294.446C60.7443 297.312 55.011 300.179 52.1444 300.179C49.2777 300.179 44.5 296.357 44.5 293.49C44.5 291.223 48.8566 287.525 51.1106 285.902C51.1636 285.864 51.2163 285.833 51.2757 285.806C58.9499 282.282 74.3159 274.365 75.0775 270.557C76.033 265.779 76.033 254.313 76.033 253.357C76.033 252.402 68.3886 253.357 62.6554 247.624C56.9221 241.891 45.4555 231.38 48.3222 218.958C50.1 211.253 53.1413 203.817 55.309 199.232C55.7511 198.296 57.0898 198.576 57.1708 199.608C57.6367 205.541 58.5437 213.934 59.7887 217.046C61.6998 221.824 65.522 233.291 73.1664 236.157C78.995 238.343 83.5505 238.388 85.3439 238.111C85.5066 238.086 85.6504 238.019 85.7794 237.917C90.7001 234.023 103.34 225.597 116.166 221.824C129.035 218.039 150.461 212.693 159.847 210.424C160.031 210.379 160.192 210.287 160.326 210.153L161.077 209.402" stroke="#454545" stroke-width="4" stroke-linecap="round"/>
<path d="M162.033 192.202C154.388 179.462 139.1 162.58 147.699 148.247C153.235 139.021 164.05 143.383 166.734 147.181C166.787 147.255 166.824 147.333 166.853 147.42C169.675 156.047 169.501 171.57 172.543 173.091M162.033 192.202C161.396 193.795 159.357 198.891 160.121 206.535C161.077 216.091 183.795 226.972 186.877 228.513C192.61 231.38 197.521 232.862 201.21 234.246C208.854 237.113 209.173 236.794 211.721 237.113C212.995 237.113 216.116 236.921 218.41 236.157C222.232 234.883 224.869 231.084 226.665 229.025M162.033 192.202C162.033 192.202 164.602 185.623 166.81 181.691C168.787 178.172 172.543 173.091 172.543 173.091M172.543 173.091C176.365 175.003 174.455 166.402 192.61 159.713C200.533 156.794 204.713 157.166 205.032 156.847M205.032 156.847C199.936 152.707 189.552 143.661 188.788 140.603C186.877 132.959 192.61 124.359 201.21 126.27C208.084 127.798 212.668 132.95 217.442 143.443C217.45 143.46 217.456 143.475 217.463 143.493C217.678 144.045 221.603 154.137 224.143 160.669M205.032 156.847C205.032 156.847 210.907 157.081 214.588 157.803C218.411 158.553 220.538 159.191 224.143 160.669M224.143 160.669C228.921 164.173 238.094 172.709 240.387 178.825C243.254 186.469 250.898 203.668 250.898 211.313C250.898 218.957 250.898 222.779 248.987 225.646C247.076 228.513 242.581 233.391 236.565 233.291C233.162 233.234 230.12 232.403 227.343 230.641C227.127 230.504 226.975 230.286 226.913 230.038C226.831 229.704 226.748 229.367 226.665 229.025M226.313 227.557C225.004 222.033 223.728 215.929 223.187 213.224L226.313 227.557ZM226.313 227.557C226.43 228.052 226.548 228.542 226.665 229.025" stroke="#454545" stroke-width="4" stroke-linecap="round"/>
<path d="M227.557 206.832C227.738 207.747 227.322 208.997 226.117 210.28C224.938 211.536 223.334 212.444 221.989 212.709C220.645 212.974 218.815 212.743 217.248 212.029C215.646 211.299 214.787 210.301 214.607 209.386C214.468 208.681 214.726 207.969 215.91 207.152C217.112 206.322 218.873 205.713 220.545 205.384C222.217 205.054 224.077 204.949 225.504 205.26C226.909 205.567 227.418 206.127 227.557 206.832Z" fill="#454545" stroke="#454545" stroke-width="4"/>
<ellipse cx="190.698" cy="185.514" rx="5.73327" ry="4.77773" transform="rotate(61.8969 190.698 185.514)" fill="#454545"/>
<ellipse cx="210.991" cy="176.577" rx="5.73327" ry="4.77773" transform="rotate(61.8969 210.991 176.577)" fill="#454545"/>
<path d="M11.4657 33.4623C-4.69879 41.0171 4.60545 54.0846 11.4154 59.8038C11.5074 59.8812 11.6206 59.9225 11.7407 59.926L97.9869 62.4184C98.0322 62.4197 98.0755 62.4159 98.1197 62.4056C101.815 61.5431 109.771 57.7717 112.555 49.4204C116.055 38.9202 107.555 33.4206 106.055 30.9204C104.901 28.9973 96.5681 31.5426 92.0761 33.2231C91.79 33.3301 91.473 33.1804 91.3741 32.8915L85.0882 14.517C85.0664 14.4533 85.0352 14.3968 84.9913 14.3457C80.257 8.83047 65.7612 -1.06134 45.0552 2.92058C19.0552 7.92058 27.5552 40.4206 25.5552 36.4206C23.9675 33.2452 15.6838 33.0895 11.6482 33.413C11.5852 33.4181 11.5229 33.4356 11.4657 33.4623Z" stroke="#454545" stroke-width="4" stroke-linecap="round"/>
<path d="M262.466 419.462C246.301 427.017 255.605 440.085 262.415 445.804C262.507 445.881 262.621 445.923 262.741 445.926L348.987 448.418C349.032 448.42 349.075 448.416 349.12 448.406C352.815 447.543 360.771 443.772 363.555 435.42C367.055 424.92 358.555 419.421 357.055 416.92C355.901 414.997 347.568 417.543 343.076 419.223C342.79 419.33 342.473 419.18 342.374 418.891L336.088 400.517C336.066 400.453 336.035 400.397 335.991 400.346C331.257 394.83 316.761 384.939 296.055 388.921C270.055 393.921 278.555 426.421 276.555 422.421C274.967 419.245 266.684 419.09 262.648 419.413C262.585 419.418 262.523 419.436 262.466 419.462Z" stroke="#454545" stroke-width="4" stroke-linecap="round"/>
<path d="M290.345 67.357L280.139 72.9243C280.048 72.9737 279.945 72.9961 279.842 72.9887L266.705 72.0504C266.35 72.025 266.069 72.3445 266.139 72.6933L267.957 81.7848C267.985 81.9228 267.957 82.066 267.88 82.184L262.041 91.1678C261.808 91.5261 262.065 92 262.493 92H273.715C273.893 92 274.06 92.0883 274.16 92.2358L281.974 103.726C282.207 104.07 282.725 104.031 282.905 103.656L288.407 92.1938C288.467 92.0694 288.572 91.9726 288.701 91.9235L298.399 88.229C298.712 88.1096 298.842 87.736 298.669 87.4485L293.051 78.0842C293.017 78.0285 292.994 77.9673 292.982 77.9034L291.133 67.7335C291.068 67.3723 290.668 67.1812 290.345 67.357Z" stroke="#454545" stroke-width="3" stroke-linecap="round"/>
<path d="M67.3455 410.357L57.1387 415.924C57.0481 415.974 56.9453 415.996 56.8424 415.989L43.7052 415.05C43.3504 415.025 43.0689 415.344 43.1387 415.693L44.957 424.785C44.9846 424.923 44.9571 425.066 44.8804 425.184L39.0409 434.168C38.808 434.526 39.0652 435 39.4925 435H50.7149C50.8932 435 51.06 435.088 51.1603 435.236L58.9739 446.726C59.2074 447.07 59.7252 447.031 59.9049 446.656L65.407 435.194C65.4667 435.069 65.5719 434.973 65.7008 434.923L75.399 431.229C75.7123 431.11 75.8416 430.736 75.6691 430.448L70.0505 421.084C70.0171 421.029 69.9941 420.967 69.9824 420.903L68.1334 410.734C68.0677 410.372 67.6678 410.181 67.3455 410.357Z" stroke="#454545" stroke-width="3" stroke-linecap="round"/>
</svg>
