<svg width="20" height="21" viewBox="0 0 20 21" fill="none" xmlns="http://www.w3.org/2000/svg">
<circle cx="10" cy="10.5" r="10" fill="white"/>
<path d="M15.7535 8.9318C15.6894 8.6693 15.5675 8.4243 15.3977 8.2143C15.2282 8.00462 15.0126 7.83693 14.7677 7.7243C14.5236 7.60808 14.2564 7.54827 13.986 7.5493H11.4019L11.5535 6.96597C11.6943 6.41074 11.6408 5.82406 11.4019 5.30347C11.1583 4.78512 10.7474 4.36387 10.2352 4.10763L9.59354 3.79263C9.45931 3.72629 9.3116 3.69177 9.16187 3.69177C9.01214 3.69177 8.86443 3.72629 8.7302 3.79263C8.59611 3.86198 8.48021 3.96189 8.39187 4.0843C8.30235 4.2042 8.2442 4.34456 8.2227 4.49263L7.67437 7.78847C7.58565 7.86946 7.5055 7.95938 7.4352 8.0568C7.30209 7.89569 7.13565 7.76534 6.94734 7.67471C6.75903 7.58408 6.55332 7.53532 6.34437 7.5318H5.65604C5.26617 7.5318 4.89227 7.68667 4.61659 7.96235C4.34091 8.23803 4.18604 8.61193 4.18604 9.0018V13.8376C4.18604 14.2275 4.34091 14.6014 4.61659 14.8771C4.89227 15.1528 5.26617 15.3076 5.65604 15.3076H6.34437C6.56055 15.3086 6.77424 15.2614 6.96996 15.1696C7.16568 15.0778 7.33854 14.9436 7.47603 14.7768C7.81862 15.1173 8.28218 15.3082 8.7652 15.3076H13.1519C13.5758 15.3134 13.9884 15.1711 14.3185 14.9051C14.6525 14.6393 14.8801 14.2627 14.9602 13.8435L15.7885 9.70763C15.8321 9.44947 15.8202 9.18499 15.7535 8.9318ZM6.9277 13.861C6.9277 14.0157 6.86624 14.164 6.75685 14.2734C6.64745 14.3828 6.49908 14.4443 6.34437 14.4443H5.65604C5.50133 14.4443 5.35295 14.3828 5.24356 14.2734C5.13416 14.164 5.0727 14.0157 5.0727 13.861V9.02513C5.0727 8.87042 5.13416 8.72205 5.24356 8.61265C5.35295 8.50326 5.50133 8.4418 5.65604 8.4418H6.34437C6.49908 8.4418 6.64745 8.50326 6.75685 8.61265C6.86624 8.72205 6.9277 8.87042 6.9277 9.02513V13.861Z" fill="#969696"/>
</svg>
