<svg width="48" height="48" viewBox="0 0 48 48" fill="none" xmlns="http://www.w3.org/2000/svg">
<circle cx="24" cy="24" r="24" transform="matrix(-1 0 0 1 48 0)" fill="#D4C0AD"/>
<g clip-path="url(#clip0_221_334)">
<path fill-rule="evenodd" clip-rule="evenodd" d="M19.1278 22.7273C18.7908 23.0648 18.6014 23.5223 18.6014 23.9993C18.6014 24.4763 18.7908 24.9338 19.1278 25.2713L25.915 32.0609C26.2527 32.3985 26.7106 32.588 27.1881 32.5879C27.6655 32.5878 28.1233 32.398 28.4608 32.0603C28.7984 31.7227 28.9879 31.2647 28.9878 30.7873C28.9877 30.3099 28.7979 29.8521 28.4602 29.5145L22.945 23.9993L28.4602 18.4841C28.7883 18.1448 28.9699 17.6902 28.9661 17.2183C28.9622 16.7463 28.7731 16.2947 28.4395 15.9608C28.1059 15.627 27.6546 15.4374 27.1826 15.4331C26.7107 15.4288 26.2559 15.61 25.9162 15.9377L19.1266 22.7261L19.1278 22.7273Z" fill="#946233"/>
</g>
<defs>
<clipPath id="clip0_221_334">
<rect width="28.8" height="28.8" fill="white" transform="matrix(4.37114e-08 -1 -1 -4.37114e-08 38.3999 38.3994)"/>
</clipPath>
</defs>
</svg>
