<svg width="24" height="25" viewBox="0 0 24 25" fill="none" xmlns="http://www.w3.org/2000/svg">
<path fill-rule="evenodd" clip-rule="evenodd" d="M12 22.5C17.523 22.5 22 18.023 22 12.5C22 6.977 17.523 2.5 12 2.5C6.477 2.5 2 6.977 2 12.5C2 18.023 6.477 22.5 12 22.5ZM15.935 6.092C16.073 6.14822 16.1911 6.24425 16.2742 6.36785C16.3574 6.49145 16.4019 6.63702 16.402 6.786V9.501C16.402 9.69991 16.323 9.89068 16.1823 10.0313C16.0417 10.172 15.8509 10.251 15.652 10.251H13C12.8524 10.2511 12.708 10.2076 12.585 10.126C12.462 10.0444 12.3658 9.92833 12.3085 9.79231C12.2511 9.65629 12.2352 9.50637 12.2627 9.36134C12.2902 9.2163 12.3599 9.08261 12.463 8.977L13.225 8.197C12.489 7.97087 11.7048 7.95292 10.9592 8.14514C10.2137 8.33735 9.53591 8.73222 9.001 9.286C7.333 10.993 7.333 13.769 9.001 15.476C9.38982 15.8787 9.85575 16.1989 10.371 16.4176C10.8862 16.6363 11.4403 16.749 12 16.749C12.5597 16.749 13.1138 16.6363 13.629 16.4176C14.1443 16.1989 14.6102 15.8787 14.999 15.476C15.6559 14.8026 16.0793 13.9361 16.207 13.004C16.265 12.586 16.597 12.234 17.019 12.234C17.425 12.234 17.761 12.559 17.722 12.963C17.5949 14.3039 17.0127 15.5609 16.072 16.525C15.5435 17.0707 14.9106 17.5045 14.2111 17.8009C13.5116 18.0972 12.7597 18.2498 12 18.2498C11.2403 18.2498 10.4884 18.0972 9.78888 17.8009C9.08936 17.5045 8.45654 17.0707 7.928 16.525C5.691 14.235 5.691 10.528 7.928 8.238C8.74387 7.39504 9.80128 6.82611 10.9543 6.60973C12.1073 6.39335 13.299 6.5402 14.365 7.03L15.115 6.262C15.2193 6.15533 15.353 6.08218 15.4991 6.05189C15.6451 6.02161 15.7969 6.03558 15.935 6.092Z" fill="white"/>
</svg>
