<svg width="49" height="48" viewBox="0 0 49 48" fill="none" xmlns="http://www.w3.org/2000/svg">
<path d="M17.5 10L15.5 5C13.333 5.833 8.69999 10.8 9.49999 18M31.5 10L33.5 5C35.667 5.833 40.3 10.8 39.5 18" stroke="white" stroke-width="3" stroke-linecap="round" stroke-linejoin="round"/>
<path d="M42.5 28.5C42.5 38.165 34.441 43 24.5 43C14.559 43 6.5 38.165 6.5 28.5C6.5 18.835 14.559 9 24.5 9C34.441 9 42.5 18.835 42.5 28.5Z" stroke="white" stroke-width="3"/>
<path d="M20.5 19C21.6046 19 22.5 18.1046 22.5 17C22.5 15.8954 21.6046 15 20.5 15C19.3954 15 18.5 15.8954 18.5 17C18.5 18.1046 19.3954 19 20.5 19Z" fill="white"/>
<path d="M28.5 19C29.6046 19 30.5 18.1046 30.5 17C30.5 15.8954 29.6046 15 28.5 15C27.3954 15 26.5 15.8954 26.5 17C26.5 18.1046 27.3954 19 28.5 19Z" fill="white"/>
<path d="M24.5 26C24.5 27.657 25 31.5 21.5 31.5C20.7044 31.5 19.9413 31.1839 19.3787 30.6213C18.8161 30.0587 18.5 29.2956 18.5 28.5" stroke="white" stroke-width="3" stroke-linecap="round" stroke-linejoin="round"/>
<path d="M24.5249 26C24.5249 27.657 24.0249 31.5 27.5249 31.5C28.3206 31.5 29.0836 31.1839 29.6463 30.6213C30.2089 30.0587 30.5249 29.2956 30.5249 28.5" stroke="white" stroke-width="3" stroke-linecap="round" stroke-linejoin="round"/>
<path d="M26.5 25.75C26.5 26.44 24.5 27.5 24.5 27.5C24.5 27.5 22.5 26.44 22.5 25.75C22.5 25.06 23 24.5 24.5 24.5C26 24.5 26.5 25.06 26.5 25.75Z" stroke="white" stroke-width="3" stroke-linejoin="round"/>
</svg>
