<svg width="64" height="64" viewBox="0 0 64 64" fill="none" xmlns="http://www.w3.org/2000/svg">
<path d="M47.9999 21.3333C47.9999 22.7478 47.438 24.1044 46.4378 25.1046C45.4376 26.1048 44.0811 26.6667 42.6666 26.6667C41.2521 26.6667 39.8955 26.1048 38.8954 25.1046C37.8952 24.1044 37.3333 22.7478 37.3333 21.3333C37.3333 19.9188 37.8952 18.5623 38.8954 17.5621C39.8955 16.5619 41.2521 16 42.6666 16C44.0811 16 45.4376 16.5619 46.4378 17.5621C47.438 18.5623 47.9999 19.9188 47.9999 21.3333Z" fill="#E6E6E6"/>
<path fill-rule="evenodd" clip-rule="evenodd" d="M31.8479 3.3335H32.1519C38.3092 3.3335 43.1333 3.3335 46.8986 3.84016C50.7492 4.3575 53.7892 5.44016 56.1759 7.82416C58.5626 10.2108 59.6426 13.2508 60.1599 17.1042C60.6666 20.8668 60.6666 25.6908 60.6666 31.8482V32.0828C60.6666 37.1735 60.6666 41.3388 60.3892 44.7308C60.1119 48.1442 59.5439 50.9895 58.2692 53.3575C57.7092 54.4002 57.0159 55.3362 56.1759 56.1762C53.7892 58.5628 50.7493 59.6428 46.8959 60.1602C43.1333 60.6668 38.3092 60.6668 32.1519 60.6668H31.8479C25.6906 60.6668 20.8666 60.6668 17.1013 60.1602C13.2506 59.6428 10.2106 58.5602 7.82392 56.1762C5.70925 54.0615 4.61592 51.4295 4.03725 48.1602C3.46392 44.9522 3.35992 40.9602 3.33859 36.0055C3.33325 34.7442 3.33325 33.4108 3.33325 32.0028V31.8482C3.33325 25.6908 3.33325 20.8668 3.83992 17.1015C4.35725 13.2508 5.43992 10.2108 7.82392 7.82416C10.2106 5.4375 13.2506 4.3575 17.1039 3.84016C20.8666 3.3335 25.6906 3.3335 31.8479 3.3335ZM17.6346 7.80283C14.2266 8.2615 12.1706 9.13616 10.6533 10.6535C9.13325 12.1735 8.26125 14.2268 7.80259 17.6375C7.33859 21.1042 7.33325 25.6588 7.33325 32.0002V34.2508L10.0026 31.9148C11.1734 30.8899 12.6901 30.3483 14.2453 30.3998C15.8006 30.4513 17.2781 31.092 18.3786 32.1922L29.8186 43.6322C30.7063 44.5197 31.8787 45.0657 33.1294 45.174C34.38 45.2823 35.6288 44.9459 36.6559 44.2242L37.4506 43.6642C38.9324 42.6229 40.7237 42.1153 42.5315 42.2243C44.3393 42.3333 46.0566 43.0524 47.4026 44.2642L54.9493 51.0562C55.7119 49.4615 56.1626 47.3655 56.4026 44.4082C56.6639 41.1948 56.6666 37.1895 56.6666 32.0002C56.6666 25.6588 56.6612 21.1042 56.1972 17.6375C55.7386 14.2268 54.8639 12.1708 53.3466 10.6508C51.8266 9.1335 49.7732 8.2615 46.3626 7.80283C42.8959 7.33883 38.3413 7.3335 31.9999 7.3335C25.6586 7.3335 21.1012 7.33883 17.6346 7.80283Z" fill="#E6E6E6"/>
</svg>
