<svg width="120" height="120" viewBox="0 0 120 120" fill="none" xmlns="http://www.w3.org/2000/svg">
<g clip-path="url(#clip0_821_6254)">
<g filter="url(#filter0_d_821_6254)">
<path d="M60 114.182C90.7271 114.182 115.636 89.2727 115.636 58.5455C115.636 27.8184 90.7271 2.90918 60 2.90918C29.2729 2.90918 4.36365 27.8184 4.36365 58.5455C4.36365 89.2727 29.2729 114.182 60 114.182Z" fill="url(#paint0_linear_821_6254)"/>
<path d="M111.636 58.5455C111.636 87.0635 88.518 110.182 60 110.182C31.482 110.182 8.36365 87.0635 8.36365 58.5455C8.36365 30.0276 31.482 6.90918 60 6.90918C88.518 6.90918 111.636 30.0276 111.636 58.5455Z" stroke="white" stroke-width="8"/>
</g>
<g filter="url(#filter1_f_821_6254)">
<path d="M29.8182 63.2726C37.4498 63.2726 43.6364 59.2025 43.6364 54.1817C43.6364 49.161 37.4498 45.0908 29.8182 45.0908C22.1866 45.0908 16 49.161 16 54.1817C16 59.2025 22.1866 63.2726 29.8182 63.2726Z" fill="#FF9B9B" fill-opacity="0.68"/>
</g>
<g filter="url(#filter2_f_821_6254)">
<path d="M90.9091 63.2726C98.5407 63.2726 104.727 59.2025 104.727 54.1817C104.727 49.161 98.5407 45.0908 90.9091 45.0908C83.2775 45.0908 77.0909 49.161 77.0909 54.1817C77.0909 59.2025 83.2775 63.2726 90.9091 63.2726Z" fill="#FF9B9B" fill-opacity="0.68"/>
</g>
<path d="M47.2727 38.5459L53.1775 44.4507C53.3306 44.6037 53.3306 44.8517 53.1775 45.0047L47.2727 50.9095" stroke="#353535" stroke-width="6" stroke-linecap="round"/>
<path d="M72.3636 38.5459L66.4588 44.4507C66.3058 44.6037 66.3058 44.8517 66.4588 45.0047L72.3636 50.9095" stroke="#353535" stroke-width="6" stroke-linecap="round"/>
<path d="M60.3636 80.0004C64.3803 80.0004 67.6364 75.4418 67.6364 69.8185C67.6364 64.1953 64.3803 59.6367 60.3636 59.6367C56.347 59.6367 53.0909 64.1953 53.0909 69.8185C53.0909 75.4418 56.347 80.0004 60.3636 80.0004Z" fill="#353535"/>
<mask id="mask0_821_6254" style="mask-type:alpha" maskUnits="userSpaceOnUse" x="53" y="69" width="14" height="12">
<path d="M66.9091 74.909C66.9091 78.1221 63.9786 80.7272 60.3636 80.7272C56.7486 80.7272 53.8182 78.1221 53.8182 74.909C53.8182 71.6957 56.7486 69.0908 60.3636 69.0908C63.9786 69.0908 66.9091 71.6957 66.9091 74.909Z" fill="#FF6B6B"/>
</mask>
<g mask="url(#mask0_821_6254)">
<path d="M60.3636 80.0004C64.3803 80.0004 67.6364 75.4418 67.6364 69.8185C67.6364 64.1953 64.3803 59.6367 60.3636 59.6367C56.347 59.6367 53.0909 64.1953 53.0909 69.8185C53.0909 75.4418 56.347 80.0004 60.3636 80.0004Z" fill="url(#paint1_linear_821_6254)"/>
</g>
</g>
<defs>
<filter id="filter0_d_821_6254" x="-1.63635" y="-1.09082" width="123.273" height="123.272" filterUnits="userSpaceOnUse" color-interpolation-filters="sRGB">
<feFlood flood-opacity="0" result="BackgroundImageFix"/>
<feColorMatrix in="SourceAlpha" type="matrix" values="0 0 0 0 0 0 0 0 0 0 0 0 0 0 0 0 0 0 127 0" result="hardAlpha"/>
<feOffset dy="2"/>
<feGaussianBlur stdDeviation="3"/>
<feComposite in2="hardAlpha" operator="out"/>
<feColorMatrix type="matrix" values="0 0 0 0 0.323405 0 0 0 0 0.323405 0 0 0 0 0.323405 0 0 0 0.25 0"/>
<feBlend mode="normal" in2="BackgroundImageFix" result="effect1_dropShadow_821_6254"/>
<feBlend mode="normal" in="SourceGraphic" in2="effect1_dropShadow_821_6254" result="shape"/>
</filter>
<filter id="filter1_f_821_6254" x="2.9" y="31.9908" width="53.8364" height="44.3816" filterUnits="userSpaceOnUse" color-interpolation-filters="sRGB">
<feFlood flood-opacity="0" result="BackgroundImageFix"/>
<feBlend mode="normal" in="SourceGraphic" in2="BackgroundImageFix" result="shape"/>
<feGaussianBlur stdDeviation="6.55" result="effect1_foregroundBlur_821_6254"/>
</filter>
<filter id="filter2_f_821_6254" x="63.9909" y="31.9908" width="53.8364" height="44.3816" filterUnits="userSpaceOnUse" color-interpolation-filters="sRGB">
<feFlood flood-opacity="0" result="BackgroundImageFix"/>
<feBlend mode="normal" in="SourceGraphic" in2="BackgroundImageFix" result="shape"/>
<feGaussianBlur stdDeviation="6.55" result="effect1_foregroundBlur_821_6254"/>
</filter>
<linearGradient id="paint0_linear_821_6254" x1="60" y1="2.90918" x2="60" y2="114.182" gradientUnits="userSpaceOnUse">
<stop stop-color="#FFD756"/>
<stop offset="1" stop-color="#FFC300"/>
</linearGradient>
<linearGradient id="paint1_linear_821_6254" x1="60.3636" y1="59.6367" x2="60.3636" y2="80.0004" gradientUnits="userSpaceOnUse">
<stop stop-color="#A24848"/>
<stop offset="1" stop-color="#FF6969"/>
</linearGradient>
<clipPath id="clip0_821_6254">
<rect width="120" height="120" fill="white"/>
</clipPath>
</defs>
</svg>
