<svg width="40" height="40" viewBox="0 0 40 40" fill="none" xmlns="http://www.w3.org/2000/svg">
<circle cx="20" cy="20" r="16" fill="#87B089"/>
<ellipse cx="20" cy="19.5" rx="11" ry="5.5" fill="white"/>
<path d="M31.8704 16.8458C32.3431 17.3736 32.6792 17.9387 32.8562 18.5298L32.7604 18.5584C32.8524 18.866 32.9 19.1803 32.9 19.5C32.9 19.8197 32.8524 20.134 32.7604 20.4416L32.8562 20.4702C32.6792 21.0613 32.3431 21.6264 31.8704 22.1542L31.7959 22.0875C31.3978 22.5318 30.8998 22.951 30.3146 23.3373L30.3697 23.4207C29.8555 23.7602 29.2762 24.0736 28.6411 24.3563L28.6004 24.265C28.0326 24.5177 27.4194 24.746 26.7675 24.9463L26.7968 25.0419C26.1922 25.2277 25.5549 25.3894 24.8902 25.5244L24.8703 25.4264C24.2481 25.5528 23.6017 25.6557 22.9355 25.7329L22.947 25.8323C22.3096 25.9061 21.6543 25.9566 20.9849 25.9816L20.9811 25.8817C20.6573 25.8938 20.3301 25.9 20 25.9C19.6699 25.9 19.3427 25.8938 19.0189 25.8817L19.0151 25.9816C18.3457 25.9566 17.6904 25.9061 17.053 25.8323L17.0645 25.7329C16.3983 25.6557 15.7519 25.5528 15.1297 25.4264L15.1098 25.5244C14.4451 25.3894 13.8078 25.2277 13.2032 25.0419L13.2325 24.9463C12.5806 24.746 11.9674 24.5177 11.3996 24.265L11.3589 24.3563C10.7238 24.0736 10.1445 23.7602 9.6303 23.4207L9.68539 23.3373C9.10024 22.951 8.60219 22.5318 8.20413 22.0875L8.12965 22.1542C7.65688 21.6264 7.32077 21.0613 7.14385 20.4702L7.23965 20.4416C7.14759 20.134 7.1 19.8197 7.1 19.5C7.1 19.1803 7.14759 18.866 7.23965 18.5584L7.14385 18.5298C7.32077 17.9387 7.65688 17.3736 8.12965 16.8458L8.20413 16.9125C8.60219 16.4682 9.10024 16.049 9.68539 15.6627L9.6303 15.5793C10.1445 15.2398 10.7238 14.9264 11.3589 14.6437L11.3996 14.735C11.9674 14.4823 12.5806 14.254 13.2325 14.0537L13.2032 13.9581C13.8078 13.7723 14.4451 13.6106 15.1098 13.4756L15.1297 13.5736C15.7519 13.4472 16.3983 13.3443 17.0645 13.2671L17.053 13.1677C17.6904 13.0939 18.3457 13.0434 19.0151 13.0184L19.0189 13.1183C19.3427 13.1062 19.6699 13.1 20 13.1C20.3301 13.1 20.6573 13.1062 20.9811 13.1183L20.9849 13.0184C21.6543 13.0434 22.3096 13.0939 22.947 13.1677L22.9355 13.2671C23.6017 13.3443 24.2481 13.4472 24.8703 13.5736L24.8902 13.4756C25.5549 13.6106 26.1922 13.7723 26.7968 13.9581L26.7675 14.0537C27.4194 14.254 28.0326 14.4823 28.6004 14.735L28.6411 14.6437C29.2762 14.9264 29.8555 15.2398 30.3697 15.5793L30.3146 15.6627C30.8998 16.049 31.3978 16.4682 31.7959 16.9125L31.8704 16.8458Z" stroke="white" stroke-width="0.2" stroke-dasharray="2 2"/>
</svg>
