<svg width="40" height="40" viewBox="0 0 40 40" fill="none" xmlns="http://www.w3.org/2000/svg">
<circle cx="20" cy="20" r="16" fill="#B29CF1"/>
<path d="M19.7064 30.7392C19.7479 31.0869 20.2521 31.0869 20.2936 30.7392L20.64 27.8224C21.0864 24.0561 24.0557 21.0866 27.822 20.6396L30.7391 20.2936C31.087 20.2523 31.087 19.7477 30.7391 19.7064L27.822 19.3604C24.0557 18.9134 21.0864 15.9439 20.64 12.1776L20.2936 9.26078C20.2521 8.91307 19.7479 8.91307 19.7064 9.26078L19.3607 12.1776C18.9136 15.9439 15.9444 18.9134 12.178 19.3604L9.26089 19.7064C8.91304 19.7477 8.91304 20.2523 9.26089 20.2936L12.178 20.6396C15.9444 21.0866 18.9136 24.0561 19.3607 27.8224L19.7064 30.7392Z" fill="#DDC2FF"/>
</svg>
