<svg width="40" height="40" viewBox="0 0 40 40" fill="none" xmlns="http://www.w3.org/2000/svg">
<circle cx="20" cy="20" r="16" fill="#ACD7FF"/>
<path d="M27.2415 17.5465C27.2879 17.3134 27.3122 17.073 27.3122 16.8271C27.3122 14.7135 25.5187 13 23.3063 13C21.9527 13 20.7558 13.6415 20.0308 14.6236C19.3346 14.0653 18.4367 13.729 17.4567 13.729C15.2655 13.729 13.4853 15.4097 13.4514 17.4953H13.4509C10.9927 17.4953 9 19.3991 9 21.7476C9 24.0962 10.9927 26 13.4509 26H26.5492C29.0073 26 31 24.0962 31 21.7476C31 19.6241 29.3708 17.8642 27.2415 17.5465Z" fill="white"/>
</svg>
