<svg width="184" height="45" viewBox="0 0 184 45" fill="none" xmlns="http://www.w3.org/2000/svg">
<rect width="184" height="45" rx="6" fill="#FEE500"/>
<g clip-path="url(#clip0_111_281)">
<path fill-rule="evenodd" clip-rule="evenodd" d="M23 14.1C18.0292 14.1 14 17.2129 14 21.0523C14 23.44 15.5584 25.5449 17.9315 26.7969L16.933 30.4445C16.8448 30.7668 17.2134 31.0237 17.4965 30.8369L21.8733 27.9482C22.2427 27.9838 22.6181 28.0046 23 28.0046C27.9705 28.0046 31.9999 24.8918 31.9999 21.0523C31.9999 17.2129 27.9705 14.1 23 14.1Z" fill="black"/>
</g>
<path d="M67.2149 16.215C67.1999 20.79 65.1149 23.85 61.2899 25.86L60.2999 24.75C62.2349 23.865 63.8549 22.44 64.7699 20.595L60.8549 21.015L60.6149 19.68L65.2799 19.335C65.4449 18.735 65.5649 18.12 65.6099 17.46H61.2899V16.215H67.2149ZM70.8299 14.82V20.04H72.8999V21.315H70.8299V28.185H69.2849V14.82H70.8299ZM80.1934 16.215C80.1784 20.79 78.0934 23.85 74.2684 25.86L73.2784 24.75C75.2134 23.865 76.8334 22.44 77.7484 20.595L73.8334 21.015L73.5934 19.68L78.2584 19.335C78.4234 18.735 78.5434 18.12 78.5884 17.46H74.2684V16.215H80.1934ZM83.8084 14.82V20.04H85.8784V21.315H83.8084V28.185H82.2634V14.82H83.8084ZM98.4819 26.475H86.4069V25.245H91.6569V22.965C89.1819 22.725 87.6069 21.315 87.6069 19.32C87.6069 17.115 89.5419 15.645 92.4369 15.645C95.3769 15.645 97.2969 17.115 97.2969 19.32C97.2969 21.33 95.6919 22.74 93.1869 22.98V25.245H98.4819V26.475ZM95.7519 19.335C95.7519 17.91 94.4469 16.905 92.4369 16.905C90.4719 16.905 89.1519 17.91 89.1519 19.335C89.1519 20.745 90.4719 21.705 92.4369 21.705C94.4319 21.705 95.7519 20.745 95.7519 19.335ZM114.231 23.025H110.106V25.26H115.401V26.49H103.326V25.26H108.576V23.025H104.871V18.705H112.311V16.98H104.826V15.75H113.841V19.95H106.416V21.78H114.231V23.025ZM128.379 26.235H116.304V24.99H128.379V26.235ZM126.804 16.26C126.804 19.8 126.579 22.305 126.219 24.06L124.704 23.865C125.034 22.53 125.259 19.635 125.259 17.475H117.699V16.26H126.804ZM140.278 24.51H138.748V14.82H140.278V24.51ZM140.593 27.795H131.443V23.595H132.973V26.565H140.593V27.795ZM136.528 19.08C136.528 20.985 135.148 22.35 133.108 22.35C131.068 22.35 129.658 20.985 129.658 19.095C129.658 17.19 131.053 15.81 133.108 15.81C135.148 15.81 136.528 17.175 136.528 19.08ZM134.998 19.08C134.998 17.91 134.278 17.085 133.108 17.085C131.968 17.085 131.203 17.94 131.203 19.08C131.203 20.175 131.968 21.045 133.108 21.045C134.278 21.045 134.998 20.175 134.998 19.08Z" fill="black" fill-opacity="0.85"/>
<defs>
<clipPath id="clip0_111_281">
<rect width="17.9999" height="18" fill="white" transform="translate(14 13.5)"/>
</clipPath>
</defs>
</svg>
