<svg width="280" height="49" viewBox="0 0 280 49" fill="none" xmlns="http://www.w3.org/2000/svg">
<rect y="0.5" width="280" height="48" rx="6" fill="#FEE500"/>
<g clip-path="url(#clip0_893_1558)">
<path fill-rule="evenodd" clip-rule="evenodd" d="M80 16.1001C75.0292 16.1001 71 19.2131 71 23.0524C71 25.4401 72.5584 27.5451 74.9315 28.7971L73.933 32.4446C73.8448 32.7669 74.2134 33.0238 74.4965 32.837L78.8733 29.9483C79.2427 29.9839 79.6181 30.0047 80 30.0047C84.9705 30.0047 88.9999 26.8919 88.9999 23.0524C88.9999 19.2131 84.9705 16.1001 80 16.1001" fill="black"/>
</g>
<path d="M113.063 17.996C113.047 22.876 110.823 26.14 106.743 28.284L105.687 27.1C107.751 26.156 109.479 24.636 110.455 22.668L106.279 23.116L106.023 21.692L110.999 21.324C111.175 20.684 111.303 20.028 111.351 19.324H106.743V17.996H113.063ZM116.919 16.508V22.076H119.127V23.436H116.919V30.764H115.271V16.508H116.919ZM126.907 17.996C126.891 22.876 124.667 26.14 120.587 28.284L119.531 27.1C121.595 26.156 123.323 24.636 124.299 22.668L120.123 23.116L119.867 21.692L124.843 21.324C125.019 20.684 125.147 20.028 125.195 19.324H120.587V17.996H126.907ZM130.763 16.508V22.076H132.971V23.436H130.763V30.764H129.115V16.508H130.763ZM146.415 28.94H133.535V27.628H139.135V25.196C136.495 24.94 134.815 23.436 134.815 21.308C134.815 18.956 136.879 17.388 139.967 17.388C143.103 17.388 145.151 18.956 145.151 21.308C145.151 23.452 143.439 24.956 140.767 25.212V27.628H146.415V28.94ZM143.503 21.324C143.503 19.804 142.111 18.732 139.967 18.732C137.871 18.732 136.463 19.804 136.463 21.324C136.463 22.828 137.871 23.852 139.967 23.852C142.095 23.852 143.503 22.828 143.503 21.324ZM163.214 25.26H158.814V27.644H164.462V28.956H151.582V27.644H157.182V25.26H153.23V20.652H161.166V18.812H153.182V17.5H162.798V21.98H154.878V23.932H163.214V25.26ZM178.305 28.684H165.425V27.356H178.305V28.684ZM176.625 18.044C176.625 21.82 176.385 24.492 176.001 26.364L174.385 26.156C174.737 24.732 174.977 21.644 174.977 19.34H166.913V18.044H176.625ZM190.997 26.844H189.365V16.508H190.997V26.844ZM191.333 30.348H181.573V25.868H183.205V29.036H191.333V30.348ZM186.997 21.052C186.997 23.084 185.525 24.54 183.349 24.54C181.173 24.54 179.669 23.084 179.669 21.068C179.669 19.036 181.157 17.564 183.349 17.564C185.525 17.564 186.997 19.02 186.997 21.052ZM185.365 21.052C185.365 19.804 184.597 18.924 183.349 18.924C182.133 18.924 181.317 19.836 181.317 21.052C181.317 22.22 182.133 23.148 183.349 23.148C184.597 23.148 185.365 22.22 185.365 21.052Z" fill="black" fill-opacity="0.85"/>
<defs>
<clipPath id="clip0_893_1558">
<rect width="17.9999" height="18" fill="white" transform="translate(71 15.5)"/>
</clipPath>
</defs>
</svg>
