<svg width="184" height="45" viewBox="0 0 184 45" fill="none" xmlns="http://www.w3.org/2000/svg">
<rect width="184" height="45" rx="6" fill="#03C75A"/>
<g clip-path="url(#clip0_111_299)">
<path d="M25.8491 23.0627L19.9169 14.5H15V30.5H20.1509V21.936L26.0831 30.5H31V14.5H25.8491V23.0627Z" fill="white"/>
</g>
<path d="M66.795 24.405C65.835 24.6 64.005 24.795 62.4 24.81L61.08 24.825V16.11H62.61V23.52C63.915 23.52 65.715 23.355 66.57 23.13L66.795 24.405ZM71.7 28.185H70.23V14.82H71.7V28.185ZM69.015 27.54H67.56V20.37H64.83V19.095H67.56V15.09H69.015V27.54ZM84.4235 28.185H82.8935V14.82H84.4235V28.185ZM73.8185 20.535C73.8185 17.715 75.0935 15.855 77.2385 15.855C79.3835 15.855 80.6285 17.715 80.6285 20.55C80.6285 23.355 79.3835 25.215 77.2385 25.215C75.0935 25.215 73.8185 23.355 73.8185 20.535ZM79.1735 20.535C79.1735 18.39 78.3785 17.115 77.2385 17.115C76.1135 17.115 75.3335 18.39 75.3335 20.535C75.3335 22.68 76.1135 23.97 77.2385 23.97C78.3785 23.97 79.1735 22.68 79.1735 20.535ZM97.402 28.185H95.872V20.895H93.637V19.605H95.872V14.82H97.402V28.185ZM93.052 24.855H86.797V15.87H88.342V19.2H91.507V15.87H93.052V24.855ZM91.507 23.61V20.4H88.342V23.61H91.507ZM114.231 23.025H110.106V25.26H115.401V26.49H103.326V25.26H108.576V23.025H104.871V18.705H112.311V16.98H104.826V15.75H113.841V19.95H106.416V21.78H114.231V23.025ZM128.379 26.235H116.304V24.99H128.379V26.235ZM126.804 16.26C126.804 19.8 126.579 22.305 126.219 24.06L124.704 23.865C125.034 22.53 125.259 19.635 125.259 17.475H117.699V16.26H126.804ZM140.278 24.51H138.748V14.82H140.278V24.51ZM140.593 27.795H131.443V23.595H132.973V26.565H140.593V27.795ZM136.528 19.08C136.528 20.985 135.148 22.35 133.108 22.35C131.068 22.35 129.658 20.985 129.658 19.095C129.658 17.19 131.053 15.81 133.108 15.81C135.148 15.81 136.528 17.175 136.528 19.08ZM134.998 19.08C134.998 17.91 134.278 17.085 133.108 17.085C131.968 17.085 131.203 17.94 131.203 19.08C131.203 20.175 131.968 21.045 133.108 21.045C134.278 21.045 134.998 20.175 134.998 19.08Z" fill="white"/>
<defs>
<clipPath id="clip0_111_299">
<rect width="16" height="16" fill="white" transform="translate(15 14.5)"/>
</clipPath>
</defs>
</svg>
