<svg width="280" height="49" viewBox="0 0 280 49" fill="none" xmlns="http://www.w3.org/2000/svg">
<rect y="0.5" width="280" height="48" rx="6" fill="#03C75A"/>
<g clip-path="url(#clip0_880_1613)">
<path d="M82.8491 25.0627L76.9169 16.5H72V32.5H77.1509V23.936L83.0831 32.5H88V16.5H82.8491V25.0627Z" fill="white"/>
</g>
<path d="M112.615 26.732C111.591 26.94 109.639 27.148 107.927 27.164L106.519 27.18V17.884H108.151V25.788C109.543 25.788 111.463 25.612 112.375 25.372L112.615 26.732ZM117.847 30.764H116.279V16.508H117.847V30.764ZM114.983 30.076H113.431V22.428H110.519V21.068H113.431V16.796H114.983V30.076ZM131.419 30.764H129.787V16.508H131.419V30.764ZM120.107 22.604C120.107 19.596 121.467 17.612 123.755 17.612C126.043 17.612 127.371 19.596 127.371 22.62C127.371 25.612 126.043 27.596 123.755 27.596C121.467 27.596 120.107 25.612 120.107 22.604ZM125.819 22.604C125.819 20.316 124.971 18.956 123.755 18.956C122.555 18.956 121.723 20.316 121.723 22.604C121.723 24.892 122.555 26.268 123.755 26.268C124.971 26.268 125.819 24.892 125.819 22.604ZM145.263 30.764H143.631V22.988H141.247V21.612H143.631V16.508H145.263V30.764ZM140.623 27.212H133.951V17.628H135.599V21.18H138.975V17.628H140.623V27.212ZM138.975 25.884V22.46H135.599V25.884H138.975ZM163.214 25.26H158.814V27.644H164.462V28.956H151.582V27.644H157.182V25.26H153.23V20.652H161.166V18.812H153.182V17.5H162.798V21.98H154.878V23.932H163.214V25.26ZM178.305 28.684H165.425V27.356H178.305V28.684ZM176.625 18.044C176.625 21.82 176.385 24.492 176.001 26.364L174.385 26.156C174.737 24.732 174.977 21.644 174.977 19.34H166.913V18.044H176.625ZM190.997 26.844H189.365V16.508H190.997V26.844ZM191.333 30.348H181.573V25.868H183.205V29.036H191.333V30.348ZM186.997 21.052C186.997 23.084 185.525 24.54 183.349 24.54C181.173 24.54 179.669 23.084 179.669 21.068C179.669 19.036 181.157 17.564 183.349 17.564C185.525 17.564 186.997 19.02 186.997 21.052ZM185.365 21.052C185.365 19.804 184.597 18.924 183.349 18.924C182.133 18.924 181.317 19.836 181.317 21.052C181.317 22.22 182.133 23.148 183.349 23.148C184.597 23.148 185.365 22.22 185.365 21.052Z" fill="white"/>
<defs>
<clipPath id="clip0_880_1613">
<rect width="16" height="16" fill="white" transform="translate(72 16.5)"/>
</clipPath>
</defs>
</svg>
