<svg width="40" height="40" viewBox="0 0 40 40" fill="none" xmlns="http://www.w3.org/2000/svg">
<path d="M19.25 19.4395V13.7505C19.25 13.5516 19.329 13.3608 19.4697 13.2202C19.6103 13.0795 19.8011 13.0005 20 13.0005C20.1989 13.0005 20.3897 13.0795 20.5304 13.2202C20.671 13.3608 20.75 13.5516 20.75 13.7505V19.4395L22.72 17.4705C22.7896 17.4009 22.8723 17.3457 22.9632 17.308C23.0541 17.2703 23.1516 17.251 23.25 17.251C23.3485 17.251 23.4459 17.2703 23.5369 17.308C23.6278 17.3457 23.7104 17.4009 23.78 17.4705C23.8496 17.5401 23.9048 17.6227 23.9425 17.7137C23.9802 17.8046 23.9996 17.9021 23.9996 18.0005C23.9996 18.0989 23.9802 18.1964 23.9425 18.2873C23.9048 18.3783 23.8496 18.4609 23.78 18.5305L20.53 21.7805C20.3894 21.9209 20.1988 21.9998 20 21.9998C19.8013 21.9998 19.6106 21.9209 19.47 21.7805L16.22 18.5305C16.1504 18.4609 16.0952 18.3783 16.0575 18.2873C16.0199 18.1964 16.0005 18.0989 16.0005 18.0005C16.0005 17.9021 16.0199 17.8046 16.0575 17.7137C16.0952 17.6227 16.1504 17.5401 16.22 17.4705C16.2896 17.4009 16.3723 17.3457 16.4632 17.308C16.5541 17.2703 16.6516 17.251 16.75 17.251C16.8485 17.251 16.9459 17.2703 17.0369 17.308C17.1278 17.3457 17.2104 17.4009 17.28 17.4705L19.25 19.4395Z" fill="#53555C"/>
<path d="M14.75 26.9995C14.2859 26.9995 13.8408 26.8151 13.5126 26.4869C13.1844 26.1588 13 25.7136 13 25.2495V22.7495C13 22.5506 13.079 22.3598 13.2197 22.2192C13.3603 22.0785 13.5511 21.9995 13.75 21.9995C13.9489 21.9995 14.1397 22.0785 14.2803 22.2192C14.421 22.3598 14.5 22.5506 14.5 22.7495V25.2495C14.5 25.3875 14.612 25.4995 14.75 25.4995H25.25C25.3163 25.4995 25.3799 25.4732 25.4268 25.4263C25.4737 25.3794 25.5 25.3158 25.5 25.2495V22.7495C25.5 22.5506 25.579 22.3598 25.7197 22.2192C25.8603 22.0785 26.0511 21.9995 26.25 21.9995C26.4489 21.9995 26.6397 22.0785 26.7803 22.2192C26.921 22.3598 27 22.5506 27 22.7495V25.2495C27 25.7136 26.8156 26.1588 26.4874 26.4869C26.1592 26.8151 25.7141 26.9995 25.25 26.9995H14.75Z" fill="#53555C"/>
</svg>
