<svg width="34" height="34" viewBox="0 0 34 34" fill="none" xmlns="http://www.w3.org/2000/svg">
<path d="M12.0417 7.08329L10.625 3.54163C9.09005 4.13167 5.80835 7.64996 6.37501 12.75M21.9583 7.08329L23.375 3.54163C24.91 4.13167 28.1917 7.64996 27.625 12.75" stroke="#946233" stroke-width="2" stroke-linecap="round" stroke-linejoin="round"/>
<path d="M29.75 20.1875C29.75 27.0335 24.0415 30.4583 17 30.4583C9.95846 30.4583 4.25 27.0335 4.25 20.1875C4.25 13.3415 9.95846 6.375 17 6.375C24.0415 6.375 29.75 13.3415 29.75 20.1875Z" stroke="#946233" stroke-width="2"/>
<path d="M14.1667 13.4583C14.9491 13.4583 15.5833 12.8241 15.5833 12.0417C15.5833 11.2593 14.9491 10.625 14.1667 10.625C13.3843 10.625 12.75 11.2593 12.75 12.0417C12.75 12.8241 13.3843 13.4583 14.1667 13.4583Z" fill="#946233"/>
<path d="M19.8333 13.4583C20.6157 13.4583 21.25 12.8241 21.25 12.0417C21.25 11.2593 20.6157 10.625 19.8333 10.625C19.0509 10.625 18.4167 11.2593 18.4167 12.0417C18.4167 12.8241 19.0509 13.4583 19.8333 13.4583Z" fill="#946233"/>
<path d="M17 18.4166C17 19.5903 17.3542 22.3125 14.875 22.3125C14.3114 22.3125 13.7709 22.0886 13.3724 21.6901C12.9739 21.2915 12.75 20.751 12.75 20.1875" stroke="#946233" stroke-width="2" stroke-linecap="round" stroke-linejoin="round"/>
<path d="M17.0177 18.4166C17.0177 19.5903 16.6635 22.3125 19.1427 22.3125C19.7063 22.3125 20.2468 22.0886 20.6453 21.6901C21.0438 21.2915 21.2677 20.751 21.2677 20.1875" stroke="#946233" stroke-width="2" stroke-linecap="round" stroke-linejoin="round"/>
<path d="M18.4167 18.2395C18.4167 18.7283 17 19.4791 17 19.4791C17 19.4791 15.5833 18.7283 15.5833 18.2395C15.5833 17.7508 15.9375 17.3541 17 17.3541C18.0625 17.3541 18.4167 17.7508 18.4167 18.2395Z" stroke="#946233" stroke-width="2" stroke-linejoin="round"/>
</svg>
