<svg width="100%" height="100%" viewBox="0 0 1920 1080" fill="none" xmlns="http://www.w3.org/2000/svg">
<g clip-path="url(#clip0_212_65)">
<rect width="1920" height="1080" fill="white"/>
<path d="M1754.52 834.466C1758.23 829.121 1756.9 821.78 1751.56 818.071C1746.21 814.361 1738.87 815.689 1735.16 821.033C1731.45 826.381 1732.78 833.719 1738.12 837.429C1743.47 841.138 1750.81 839.814 1754.52 834.466ZM1798.52 853.462C1793.18 849.753 1785.84 851.08 1782.13 856.424C1778.42 861.772 1779.75 869.109 1785.09 872.818C1790.44 876.527 1797.78 875.204 1801.49 869.856C1805.2 864.512 1803.87 857.171 1798.52 853.462ZM1775.54 867.814C1775.44 866.517 1775.16 864.896 1774.76 863.131C1774.47 857.324 1771.6 851.709 1766.46 848.138C1761.88 844.96 1756.41 844.043 1751.36 845.114C1748.71 845.405 1746.27 845.789 1744.53 846.295L1743.37 846.625C1737.98 848.159 1731.27 850.067 1726.08 857.603C1721.26 864.602 1723.01 874.23 1729.97 879.06C1731.9 880.405 1734.11 881.286 1736.43 881.634C1738.76 881.982 1741.13 881.789 1743.37 881.068C1743.48 883.418 1744.13 885.71 1745.27 887.767C1746.41 889.824 1748.01 891.589 1749.95 892.925C1756.91 897.753 1766.53 896.015 1771.4 889.052C1776.65 881.553 1776.09 874.6 1775.64 869.013L1775.54 867.814Z" fill="#CDC6BF" fill-opacity="0.4"/>
<path d="M1771.41 842.43C1777.3 846.517 1785.39 845.056 1789.48 839.166C1793.56 833.276 1792.1 825.188 1786.21 821.101C1780.32 817.014 1772.23 818.475 1768.15 824.365C1764.06 830.255 1765.52 838.343 1771.41 842.43Z" fill="#CDC6BF" fill-opacity="0.4"/>
<path d="M234.499 980.921C240.288 969.749 235.92 955.994 224.746 950.204C213.572 944.414 199.82 948.781 194.031 959.953C188.238 971.134 192.601 984.881 203.778 990.672C214.954 996.463 228.706 992.102 234.499 980.921ZM323.624 1006.45C312.452 1000.66 298.698 1005.03 292.909 1016.2C287.116 1027.38 291.486 1041.13 302.658 1046.91C313.832 1052.7 327.582 1048.35 333.375 1037.17C339.164 1025.99 334.8 1012.24 323.624 1006.45ZM283.095 1039.68C282.587 1037.22 281.636 1034.18 280.44 1030.89C278.436 1019.83 271.544 1009.77 260.786 1004.19C251.212 999.231 240.505 998.825 231.075 1002.13C226.061 1003.35 221.468 1004.69 218.262 1006.09L216.126 1007.01C206.164 1011.29 193.766 1016.62 185.679 1032.36C178.171 1046.98 183.9 1065.02 198.452 1072.56C202.486 1074.66 206.951 1075.8 211.498 1075.89C216.045 1075.99 220.552 1075.03 224.667 1073.09C225.458 1077.57 227.273 1081.81 229.971 1085.47C232.67 1089.13 236.178 1092.12 240.223 1094.2C254.769 1101.74 272.806 1096.02 280.425 1081.45C288.623 1065.77 285.821 1052.57 283.575 1041.96L283.095 1039.68Z" fill="#CDC6BF" fill-opacity="0.4"/>
<path d="M268.876 992.012C281.189 998.392 296.343 993.582 302.723 981.269C309.103 968.956 304.293 953.803 291.98 947.423C279.667 941.043 264.513 945.852 258.133 958.166C251.753 970.479 256.563 985.632 268.876 992.012Z" fill="#CDC6BF" fill-opacity="0.4"/>
<path d="M41.0925 802.226C35.024 786.32 17.2024 778.344 1.29395 784.414C-14.6145 790.484 -22.5885 808.301 -16.52 824.207C-10.4471 840.124 7.36377 848.097 23.2751 842.027C39.1864 835.956 47.1654 818.143 41.0925 802.226ZM147.125 735.22C131.22 741.289 123.243 759.107 129.312 775.013C135.384 790.93 153.199 798.895 169.104 792.827C185.013 786.757 192.994 768.95 186.921 753.033C180.853 737.127 163.037 729.149 147.125 735.22ZM144.187 806.069C141.242 804.365 137.318 802.589 132.919 800.835C119.939 792.892 103.576 790.793 88.2607 796.636C74.6301 801.837 64.5791 812.283 59.428 824.784C56.1417 830.941 53.3617 836.788 51.8894 841.287L50.8942 844.273C46.2461 858.186 40.4578 875.498 49.0734 897.841C57.0771 918.589 80.45 929.047 101.167 921.143C106.921 918.962 112.093 915.481 116.281 910.971C120.468 906.462 123.556 901.047 125.306 895.147C130.541 898.383 136.454 900.366 142.583 900.94C148.711 901.513 154.889 900.663 160.634 898.454C181.343 890.553 191.808 867.188 183.959 846.378C175.502 823.974 159.65 814.918 146.919 807.636L144.187 806.069Z" fill="#CDC6BF" fill-opacity="0.4"/>
<path d="M83.2471 777.501C100.777 770.812 109.566 751.18 102.877 733.65C96.1892 716.121 76.5568 707.332 59.0271 714.02C41.4975 720.708 32.7087 740.341 39.3969 757.87C46.085 775.4 65.7175 784.189 83.2471 777.501Z" fill="#CDC6BF" fill-opacity="0.4"/>
<path d="M1803.72 341.742C1799.92 333.694 1790.31 330.253 1782.26 334.056C1774.21 337.859 1770.77 347.468 1774.57 355.515C1778.38 363.569 1787.98 367.009 1796.03 363.205C1804.08 359.401 1807.53 349.795 1803.72 341.742ZM1856.3 302.551C1848.25 306.353 1844.81 315.963 1848.62 324.01C1852.42 332.064 1862.03 335.5 1870.07 331.697C1878.12 327.894 1881.57 318.29 1877.76 310.237C1873.96 302.189 1864.35 298.747 1856.3 302.551ZM1857.62 339.602C1856.01 338.832 1853.9 338.064 1851.53 337.326C1844.45 333.707 1835.83 333.271 1828.09 336.932C1821.19 340.191 1816.37 346.04 1814.19 352.764C1812.72 356.106 1811.51 359.265 1810.92 361.67L1810.52 363.266C1808.66 370.706 1806.34 379.963 1811.72 391.264C1816.73 401.758 1829.34 406.27 1839.82 401.317C1842.73 399.949 1845.29 397.926 1847.29 395.407C1849.29 392.889 1850.68 389.941 1851.36 386.796C1854.21 388.272 1857.38 389.068 1860.59 389.121C1863.81 389.174 1867 388.482 1869.9 387.1C1880.38 382.149 1884.9 369.548 1879.97 359.016C1874.66 347.677 1866.03 343.593 1859.1 340.309L1857.62 339.602Z" fill="#CDC6BF" fill-opacity="0.4"/>
<path d="M1824.7 327.158C1833.57 322.967 1837.36 312.38 1833.17 303.511C1828.98 294.642 1818.39 290.849 1809.53 295.04C1800.66 299.231 1796.86 309.818 1801.05 318.688C1805.25 327.557 1815.83 331.349 1824.7 327.158Z" fill="#CDC6BF" fill-opacity="0.4"/>
</g>
<defs>
<clipPath id="clip0_212_65">
<rect width="1920" height="1080" fill="white"/>
</clipPath>
</defs>
</svg>
