<svg width="319" height="150" viewBox="0 0 319 150" fill="none" xmlns="http://www.w3.org/2000/svg">
<path d="M77.4771 19.6972L75.0944 22.8741C75.0328 22.9563 74.9489 23.0192 74.8526 23.0553L71.7103 24.2336C71.3631 24.3639 71.2482 24.7979 71.4857 25.0828L73.3943 27.3731C73.4632 27.4558 73.5057 27.5572 73.5164 27.6643L73.9174 31.6741C73.9562 32.0623 74.3819 32.2818 74.7206 32.0882L77.3296 30.5974C77.4396 30.5345 77.5684 30.5124 77.6931 30.5351L82.2782 31.3688C82.636 31.4338 82.9541 31.1329 82.909 30.772L82.5202 27.6618C82.507 27.5563 82.5254 27.4492 82.5729 27.3541L83.7324 25.0352C83.8754 24.7491 83.7392 24.4022 83.4398 24.2899L80.1981 23.0743C80.0707 23.0265 79.9662 22.9324 79.9054 22.8108L78.3898 19.7795C78.2107 19.4214 77.7173 19.3769 77.4771 19.6972Z" stroke="#454545" stroke-width="2" stroke-linecap="round"/>
<path d="M269.819 73.9963L267.69 75.1963C267.635 75.2273 267.572 75.242 267.509 75.2385L265.447 75.1244C265.219 75.1118 265.047 75.3279 265.11 75.5472L265.618 77.3101C265.636 77.3737 265.635 77.4414 265.615 77.5044L264.848 79.8628C264.774 80.0911 264.959 80.3201 265.198 80.2949L267.037 80.1008C267.115 80.0927 267.193 80.1121 267.257 80.1558L269.634 81.7605C269.82 81.8857 270.073 81.7949 270.137 81.5804L270.688 79.7319C270.707 79.6692 270.744 79.6134 270.794 79.5716L272.021 78.5522C272.173 78.4264 272.182 78.1973 272.041 78.0599L270.516 76.5725C270.456 76.5141 270.42 76.4352 270.416 76.3516L270.312 74.2686C270.3 74.0225 270.033 73.8753 269.819 73.9963Z" stroke="#454545" stroke-width="1.23077" stroke-linecap="round"/>
<path d="M61.4067 137.784L60.5905 141.133C60.5694 141.22 60.5239 141.299 60.4595 141.36L58.3545 143.374C58.1219 143.597 58.1785 143.982 58.4653 144.128L60.7706 145.304C60.8538 145.347 60.9224 145.413 60.9676 145.495L62.6572 148.558C62.8207 148.854 63.2354 148.884 63.4395 148.614L65.0122 146.533C65.0785 146.445 65.1738 146.384 65.281 146.359L69.2245 145.458C69.5323 145.388 69.6834 145.039 69.5241 144.766L68.1515 142.417C68.1049 142.338 68.083 142.246 68.0885 142.154L68.2216 139.907C68.238 139.63 68.0108 139.4 67.7336 139.413L64.7315 139.55C64.6136 139.555 64.498 139.516 64.408 139.44L62.1631 137.538C61.8979 137.314 61.489 137.447 61.4067 137.784Z" stroke="#454545" stroke-width="1.73602" stroke-linecap="round"/>
<path d="M81 15.1322C83.1204 10.8145 89.1284 2.04719 96.1968 1.51947" stroke="#454545" stroke-width="2" stroke-linecap="round"/>
<path d="M88.1589 15.1352C90.2793 10.8175 92.5 7.5 99.2678 6.26997" stroke="#454545" stroke-width="2" stroke-linecap="round"/>
<circle cx="7" cy="7" r="6.22222" transform="matrix(1 0 0 -1 305 17)" stroke="#454545" stroke-width="1.55556"/>
<path d="M312.778 6.11133C313.556 6.11133 315.267 7.20022 315.889 8.44466" stroke="#454545" stroke-width="1.55556" stroke-linecap="round"/>
<circle cx="226" cy="136" r="6.22222" stroke="#454545" stroke-width="1.55556"/>
<path d="M226.778 139.889C227.556 139.889 229.267 138.8 229.889 137.555" stroke="#454545" stroke-width="1.55556" stroke-linecap="round"/>
<circle cx="6.5" cy="6.5" r="5.77778" transform="matrix(-1 0 0 1 13 47)" stroke="#454545" stroke-width="1.44444"/>
<path d="M5.77783 57.1113C5.05561 57.1113 3.46672 56.1002 2.88894 54.9447" stroke="#454545" stroke-width="1.44444" stroke-linecap="round"/>
</svg>
