<svg width="400" height="173" viewBox="0 0 400 173" fill="none" xmlns="http://www.w3.org/2000/svg">
<path d="M118.477 39.6972L116.094 42.8741C116.033 42.9563 115.949 43.0192 115.853 43.0553L112.71 44.2336C112.363 44.3639 112.248 44.7979 112.486 45.0828L114.394 47.3731C114.463 47.4558 114.506 47.5572 114.516 47.6643L114.917 51.6741C114.956 52.0623 115.382 52.2818 115.721 52.0882L118.33 50.5974C118.44 50.5345 118.568 50.5124 118.693 50.5351L123.278 51.3688C123.636 51.4338 123.954 51.1329 123.909 50.772L123.52 47.6618C123.507 47.5563 123.525 47.4492 123.573 47.3541L124.732 45.0352C124.875 44.7491 124.739 44.4022 124.44 44.2899L121.198 43.0743C121.071 43.0265 120.966 42.9324 120.905 42.8108L119.39 39.7795C119.211 39.4214 118.717 39.3769 118.477 39.6972Z" stroke="white" stroke-opacity="0.8" stroke-width="2" stroke-linecap="round"/>
<path d="M299.818 85.9963L297.69 87.1963C297.634 87.2273 297.572 87.242 297.508 87.2385L295.446 87.1244C295.218 87.1118 295.046 87.3279 295.11 87.5472L295.618 89.3101C295.636 89.3737 295.635 89.4414 295.615 89.5044L294.848 91.8628C294.774 92.0911 294.959 92.3201 295.198 92.2949L297.037 92.1008C297.114 92.0927 297.192 92.1121 297.257 92.1558L299.634 93.7605C299.819 93.8857 300.073 93.7949 300.137 93.5804L300.688 91.7319C300.707 91.6692 300.743 91.6134 300.794 91.5716L302.021 90.5522C302.173 90.4264 302.182 90.1973 302.041 90.0599L300.515 88.5725C300.455 88.5141 300.42 88.4352 300.416 88.3516L300.312 86.2686C300.3 86.0225 300.033 85.8753 299.818 85.9963Z" stroke="white" stroke-opacity="0.8" stroke-width="1.23077" stroke-linecap="round"/>
<path d="M286.432 22.458L286.11 23.7738C286.095 23.8352 286.063 23.8911 286.017 23.9348L285.197 24.7185C285.032 24.8761 285.071 25.1495 285.275 25.2533L286.151 25.701C286.21 25.7311 286.259 25.7782 286.29 25.8362L286.959 27.0496C287.075 27.2599 287.369 27.2811 287.513 27.0897L288.099 26.3155C288.146 26.2533 288.214 26.2097 288.29 26.1924L289.899 25.826C290.117 25.7764 290.224 25.5291 290.112 25.3358L289.582 24.4283C289.549 24.3718 289.534 24.3067 289.538 24.2414L289.589 23.3781C289.601 23.1817 289.44 23.0183 289.244 23.0272L288.045 23.0811C287.961 23.0849 287.879 23.0569 287.816 23.0028L286.968 22.2839C286.78 22.1246 286.49 22.2187 286.432 22.458Z" stroke="white" stroke-opacity="0.8" stroke-linecap="round"/>
<path d="M83.4317 89.458L83.11 90.7738C83.095 90.8352 83.0627 90.8911 83.017 90.9348L82.1966 91.7185C82.0315 91.8761 82.0715 92.1495 82.2747 92.2533L83.1509 92.701C83.2099 92.7311 83.2585 92.7782 83.2905 92.8362L83.9587 94.0496C84.0745 94.2599 84.3685 94.2811 84.5134 94.0897L85.0994 93.3155C85.1465 93.2533 85.214 93.2097 85.2901 93.1924L86.8989 92.826C87.1171 92.7764 87.2244 92.5291 87.1116 92.3358L86.5822 91.4283C86.5492 91.3718 86.5337 91.3067 86.5376 91.2414L86.5894 90.3781C86.6012 90.1817 86.4402 90.0183 86.2436 90.0272L85.0449 90.0811C84.9613 90.0849 84.8794 90.0569 84.8156 90.0028L83.968 89.2839C83.7801 89.1246 83.4902 89.2187 83.4317 89.458Z" stroke="white" stroke-opacity="0.8" stroke-linecap="round"/>
<path d="M269.014 171.467L269.078 170.114C269.081 170.051 269.101 169.99 269.138 169.938L269.793 169.012C269.924 168.825 269.833 168.565 269.613 168.502L268.668 168.231C268.604 168.212 268.547 168.175 268.505 168.125L267.616 167.062C267.462 166.878 267.169 166.913 267.064 167.129L266.637 168.001C266.603 168.071 266.545 168.127 266.474 168.159L264.965 168.827C264.761 168.918 264.703 169.181 264.851 169.349L265.544 170.138C265.588 170.187 265.615 170.248 265.624 170.313L265.739 171.17C265.765 171.365 265.954 171.495 266.145 171.448L267.312 171.165C267.393 171.145 267.479 171.157 267.552 171.198L268.521 171.741C268.736 171.861 269.003 171.713 269.014 171.467Z" stroke="white" stroke-opacity="0.8" stroke-linecap="round"/>
<path d="M37.8183 39.9963L35.6895 41.1963C35.6344 41.2273 35.5716 41.242 35.5084 41.2385L33.4464 41.1244C33.2185 41.1118 33.0463 41.3279 33.1096 41.5472L33.6179 43.3101C33.6362 43.3737 33.6351 43.4414 33.6146 43.5044L32.8479 45.8628C32.7737 46.0911 32.9592 46.3201 33.1979 46.2949L35.0368 46.1008C35.1144 46.0927 35.1924 46.1121 35.2571 46.1558L37.6339 47.7605C37.8194 47.8857 38.0731 47.7949 38.137 47.5804L38.6879 45.7319C38.7066 45.6692 38.7435 45.6134 38.7938 45.5716L40.0211 44.5522C40.1725 44.4264 40.1816 44.1973 40.0407 44.0599L38.5153 42.5725C38.4554 42.5141 38.4198 42.4352 38.4157 42.3516L38.3122 40.2686C38.2999 40.0225 38.033 39.8753 37.8183 39.9963Z" stroke="white" stroke-opacity="0.8" stroke-width="1.23077" stroke-linecap="round"/>
<path d="M102.407 157.784L101.591 161.133C101.569 161.22 101.524 161.299 101.459 161.36L99.3545 163.374C99.1219 163.597 99.1785 163.982 99.4653 164.128L101.771 165.304C101.854 165.347 101.922 165.413 101.968 165.495L103.657 168.558C103.821 168.854 104.235 168.884 104.44 168.614L106.012 166.533C106.079 166.445 106.174 166.384 106.281 166.359L110.225 165.458C110.532 165.388 110.683 165.039 110.524 164.766L109.152 162.417C109.105 162.338 109.083 162.246 109.088 162.154L109.222 159.907C109.238 159.63 109.011 159.4 108.734 159.413L105.731 159.55C105.614 159.555 105.498 159.516 105.408 159.44L103.163 157.538C102.898 157.314 102.489 157.447 102.407 157.784Z" stroke="white" stroke-opacity="0.8" stroke-width="1.73602" stroke-linecap="round"/>
<path d="M122 35.1322C124.12 30.8145 130.128 22.0472 137.196 21.5195" stroke="white" stroke-opacity="0.8" stroke-width="2" stroke-linecap="round"/>
<path d="M129.159 35.1352C131.28 30.8175 133.5 27.5 140.268 26.27" stroke="white" stroke-opacity="0.8" stroke-width="2" stroke-linecap="round"/>
<circle cx="216" cy="5" r="3.5" stroke="white" stroke-opacity="0.8"/>
<path d="M216.444 7.22217C216.889 7.22217 217.867 6.59995 218.222 5.88883" stroke="white" stroke-opacity="0.8" stroke-linecap="round"/>
<circle cx="6.5" cy="6.5" r="5.77778" transform="matrix(-1 0 0 1 50 131)" stroke="white" stroke-opacity="0.8" stroke-width="1.44444"/>
<path d="M42.7773 141.111C42.0551 141.111 40.4662 140.1 39.8885 138.944" stroke="white" stroke-opacity="0.8" stroke-width="1.44444" stroke-linecap="round"/>
<path d="M31.5743 84.0073L31.4368 84.7596L32.1916 84.8824C36.1678 85.5295 39.25 89.1277 39.25 93.514C39.25 98.3682 35.481 102.25 30.896 102.25H4.10405C-0.481051 102.25 -4.25 98.3682 -4.25 93.514C-4.25 88.6598 -0.48105 84.778 4.10405 84.778H4.10507H4.84396L4.85499 84.0391C4.91877 79.7671 8.25447 76.3762 12.2978 76.3762C14.1107 76.3762 15.7741 77.0536 17.0691 78.1864L17.7081 78.7453L18.184 78.0423C19.5384 76.0415 21.7617 74.75 24.2629 74.75C28.3453 74.75 31.7067 78.2072 31.7067 82.5374C31.7067 83.0406 31.6612 83.5318 31.5743 84.0073Z" stroke="white" stroke-opacity="0.8" stroke-width="1.5"/>
<path d="M393.278 20.002L393.141 20.7542L393.895 20.877C400.872 22.0129 406.25 28.3184 406.25 35.9719C406.25 44.4395 399.673 51.25 391.624 51.25H346.376C338.327 51.25 331.75 44.4395 331.75 35.9719C331.75 27.5043 338.327 20.6938 346.376 20.6938H346.377H347.116L347.127 19.955C347.239 12.474 353.084 6.49767 360.214 6.49767C363.408 6.49767 366.336 7.69235 368.612 9.68414L369.252 10.2435L369.727 9.54004C372.104 6.02825 376.013 3.75 380.422 3.75C387.621 3.75 393.51 9.84296 393.51 17.4252C393.51 18.3067 393.43 19.168 393.278 20.002Z" stroke="white" stroke-opacity="0.8" stroke-width="1.5"/>
<path d="M333.977 138.334C333.977 138.331 333.976 138.326 333.975 138.32C333.975 138.319 333.975 138.318 333.974 138.318L333.976 138.324L334.394 138.241L334.466 138.227C334.466 138.229 334.467 138.231 334.467 138.233L333.973 138.311C333.973 138.312 333.973 138.312 333.973 138.313C333.975 138.32 333.976 138.326 333.977 138.33L333.977 138.334ZM333.977 138.334C333.977 138.334 333.978 138.334 333.978 138.334L333.977 138.334ZM321.182 132.65L321.182 132.65L321.182 132.65ZM321.182 132.65L321.186 132.647L321.188 132.646C321.187 132.646 321.185 132.648 321.182 132.65ZM331.822 141.702L331.822 141.702C333.297 141.36 334.271 139.85 333.977 138.334L333.97 138.295L333.97 138.293L333.231 134.542L333.102 133.887L333.767 133.948L337.518 134.291C337.525 134.291 337.534 134.292 337.544 134.292C339.024 134.42 340.392 133.288 340.567 131.734L340.567 131.734C340.742 130.19 339.67 128.849 338.206 128.7C338.192 128.699 338.179 128.698 338.164 128.696C338.163 128.696 338.161 128.696 338.159 128.695L334.419 128.348L333.727 128.284L334.008 127.648L335.583 124.08C335.583 124.08 335.583 124.08 335.583 124.08C336.219 122.638 335.597 120.995 334.247 120.397C332.897 119.8 331.263 120.446 330.624 121.885L329.044 125.454L328.762 126.089L328.249 125.62L325.46 123.071L325.46 123.071C324.365 122.071 322.638 122.176 321.608 123.349L321.608 123.349C320.573 124.527 320.659 126.31 321.759 127.317L321.421 127.685L321.759 127.317L324.546 129.87L325.039 130.322L324.467 130.667L321.17 132.658L321.17 132.658L321.157 132.666C319.839 133.469 319.376 135.204 320.114 136.525L320.115 136.525C320.845 137.833 322.492 138.272 323.804 137.493C323.809 137.489 323.816 137.485 323.824 137.481L327.123 135.494L327.733 135.127L327.872 135.825L328.618 139.591L328.619 139.593L328.627 139.63C328.811 140.525 329.402 141.215 330.159 141.55C330.661 141.772 331.238 141.838 331.822 141.702Z" stroke="white" stroke-opacity="0.8"/>
<path d="M74.9752 10.9967L74.9752 10.9968C74.7882 11.2634 74.5325 11.4442 74.251 11.5357C73.8262 11.6738 73.3386 11.6101 72.939 11.3145L72.9091 11.2923L72.9081 11.2918L71.0364 9.8861L70.4671 9.45852L70.2582 10.1392L69.5654 12.3959L69.5654 12.3961C69.5633 12.4021 69.5616 12.4076 69.5602 12.4122C69.3114 13.2033 68.4899 13.618 67.7256 13.3554L67.7253 13.3554C66.9471 13.0885 66.4992 12.213 66.7432 11.4035L66.7476 11.3891L66.7476 11.3891L67.4364 9.13482L67.6316 8.4959L66.9636 8.48874L64.6438 8.46384L64.6438 8.46384C63.839 8.45522 63.1494 7.76566 63.1407 6.90345L63.1407 6.90344C63.132 6.04837 63.7953 5.38657 64.592 5.39418L64.5921 5.39418L66.9109 5.41621L67.6058 5.42282L67.3912 4.76181L66.6513 2.48343C66.3843 1.65965 66.8192 0.808434 67.5735 0.563154C68.3276 0.317925 69.1801 0.750331 69.4489 1.57471C69.449 1.57472 69.449 1.57473 69.449 1.57474L70.1911 3.85048L70.4064 4.51094L70.9643 4.09703L72.8117 2.72649C72.8217 2.71972 72.8313 2.71272 72.8405 2.70556C73.4792 2.24229 74.3956 2.39005 74.8882 3.08224L74.8882 3.08225C75.387 3.78327 75.237 4.74225 74.5959 5.22377C74.5957 5.22392 74.5955 5.22407 74.5953 5.22422L74.8953 5.62419L74.9752 10.9967ZM74.9752 10.9967C75.4479 10.3229 75.2953 9.35042 74.6214 8.8398L74.5898 8.81583L74.589 8.81505L72.7275 7.41319L72.1939 7.01136L72.7298 6.61263L74.581 5.23533L74.9752 10.9967ZM66.751 11.3746L66.7506 11.3765C66.7513 11.3737 66.7517 11.3717 66.752 11.3706L66.7516 11.372L66.751 11.3746Z" stroke="white" stroke-opacity="0.8"/>
</svg>
