<svg width="64" height="64" viewBox="0 0 64 64" fill="none" xmlns="http://www.w3.org/2000/svg">
<path d="M31.9999 5.3335C46.7279 5.3335 58.6666 17.2722 58.6666 32.0002C58.6666 46.7282 46.7279 58.6668 31.9999 58.6668C27.6859 58.6725 23.4354 57.6273 19.6159 55.6215L8.17594 58.6002C7.79369 58.6997 7.39206 58.6977 7.01085 58.5942C6.62964 58.4907 6.28209 58.2894 6.00265 58.0102C5.7232 57.731 5.52157 57.3837 5.41772 57.0026C5.31387 56.6215 5.31142 56.2198 5.41061 55.8375L8.38661 44.4002C6.37551 40.5767 5.32744 36.3203 5.33328 32.0002C5.33328 17.2722 17.2719 5.3335 31.9999 5.3335ZM35.3386 34.6668H23.3333L23.0613 34.6855C22.5826 34.7514 22.1439 34.9883 21.8264 35.3525C21.5088 35.7168 21.3339 36.1836 21.3339 36.6668C21.3339 37.15 21.5088 37.6169 21.8264 37.9811C22.1439 38.3454 22.5826 38.5823 23.0613 38.6482L23.3333 38.6668H35.3386L35.6079 38.6482C36.0866 38.5823 36.5253 38.3454 36.8428 37.9811C37.1604 37.6169 37.3353 37.15 37.3353 36.6668C37.3353 36.1836 37.1604 35.7168 36.8428 35.3525C36.5253 34.9883 36.0866 34.7514 35.6079 34.6855L35.3386 34.6668ZM40.6666 25.3335H23.3333L23.0613 25.3522C22.5826 25.418 22.1439 25.655 21.8264 26.0192C21.5088 26.3834 21.3339 26.8503 21.3339 27.3335C21.3339 27.8167 21.5088 28.2836 21.8264 28.6478C22.1439 29.012 22.5826 29.249 23.0613 29.3148L23.3333 29.3335H40.6666L40.9386 29.3148C41.4173 29.249 41.856 29.012 42.1735 28.6478C42.4911 28.2836 42.666 27.8167 42.666 27.3335C42.666 26.8503 42.4911 26.3834 42.1735 26.0192C41.856 25.655 41.4173 25.418 40.9386 25.3522L40.6666 25.3335Z" fill="#E6E6E6"/>
</svg>
