<svg width="40" height="40" viewBox="0 0 40 40" fill="none" xmlns="http://www.w3.org/2000/svg">
<circle cx="20" cy="20" r="20" fill="#C7B7A8"/>
<path d="M28.2346 13.6861C28.6666 12.4911 27.5086 11.3331 26.3136 11.7661L11.7086 17.0481C10.5096 17.4821 10.3646 19.1181 11.4676 19.7571L16.1296 22.4561L20.2926 18.2931C20.4812 18.1109 20.7338 18.0101 20.996 18.0124C21.2582 18.0147 21.509 18.1199 21.6944 18.3053C21.8798 18.4907 21.9849 18.7415 21.9872 19.0037C21.9895 19.2659 21.8887 19.5185 21.7066 19.7071L17.5436 23.8701L20.2436 28.5321C20.8816 29.6351 22.5176 29.4891 22.9516 28.2911L28.2346 13.6861Z" fill="#946233"/>
</svg>
