<svg width="32" height="32" viewBox="0 0 32 32" fill="none" xmlns="http://www.w3.org/2000/svg">
<rect width="32" height="32" rx="16" fill="#C7B7A8"/>
<path d="M21.4899 11.7906C21.7779 10.9939 21.0059 10.2219 20.2093 10.5106L10.4726 14.0319C9.67328 14.3212 9.57661 15.4119 10.3119 15.8379L13.4199 17.6372L16.1953 14.8619C16.321 14.7405 16.4894 14.6733 16.6642 14.6748C16.839 14.6763 17.0062 14.7464 17.1298 14.87C17.2534 14.9936 17.3235 15.1608 17.3251 15.3356C17.3266 15.5104 17.2594 15.6788 17.1379 15.8046L14.3626 18.5799L16.1626 21.6879C16.5879 22.4232 17.6786 22.3259 17.9679 21.5272L21.4899 11.7906Z" fill="#946233"/>
</svg>
